<svg width="28" height="28" viewBox="0 0 28 28" fill="none" xmlns="http://www.w3.org/2000/svg">
<path fill-rule="evenodd" clip-rule="evenodd" d="M9.85878 10.7488C9.85878 12.7739 11.4462 14.4212 13.3976 14.4212C15.3489 14.4212 16.9363 12.7739 16.9363 10.7488C16.9363 8.72383 15.3489 7.07654 13.3976 7.07654C11.4462 7.07654 9.85878 8.72383 9.85878 10.7488ZM20.4751 19.9296C20.4751 17.4849 15.7635 16.2573 13.3976 16.2573C11.0316 16.2573 6.32001 17.4849 6.32001 19.9296V21.7658H20.4751V19.9296ZM7.0783 16.3203C5.90545 17.2017 5.09659 18.3768 5.09659 19.9297V21.7658H1.05228V19.9297C1.05228 17.8102 4.59105 16.6036 7.0783 16.3203ZM5.52234 13.0069C5.98688 14.7406 7.70042 15.793 9.34233 15.3531C9.80172 15.23 10.1958 14.9992 10.5342 14.6968C9.784 14.0409 9.20687 13.1461 8.92526 12.0951C8.64365 11.0441 8.69606 9.98063 9.0178 9.03755C8.57351 8.94478 8.11686 8.94198 7.65746 9.06507C6.01555 9.50502 5.05779 11.2732 5.52234 13.0069Z" fill="black"/>
<path d="M18.7251 16.1904C20.3138 17.0891 21.4094 18.2873 21.4094 19.8707V21.7429H26.8875V19.8707C26.8875 17.7096 22.0941 16.4793 18.7251 16.1904Z" fill="black"/>
<path d="M18.4685 14.2757C20.3901 14.2757 21.9532 12.6439 21.9532 10.6378C21.9532 8.63184 20.3901 7 18.4685 7C17.9309 7 17.4331 7.13512 16.9751 7.36378C17.6023 8.28884 17.9707 9.42177 17.9707 10.6378C17.9707 11.8539 17.6023 12.9869 16.9751 13.9119C17.4331 14.1406 17.9309 14.2757 18.4685 14.2757Z" fill="black"/>
</svg>
