<svg width="28" height="28" viewBox="0 0 28 28" fill="none" xmlns="http://www.w3.org/2000/svg">
<path fill-rule="evenodd" clip-rule="evenodd" d="M13.4167 9.91665C13.4167 12.1683 15.2484 14 17.5001 14C19.7517 14 21.5834 12.1683 21.5834 9.91665C21.5834 7.66498 19.7517 5.83331 17.5001 5.83331C15.2484 5.83331 13.4167 7.66498 13.4167 9.91665ZM25.6667 20.125C25.6667 17.4066 20.2301 16.0416 17.5001 16.0416C14.7701 16.0416 9.33342 17.4066 9.33342 20.125V22.1666H25.6667V20.125ZM9.28675 16.1116C7.93341 17.0916 7.00008 18.3983 7.00008 20.125V22.1666H2.33341V20.125C2.33341 17.7683 6.41674 16.4266 9.28675 16.1116ZM6.41675 9.91665C6.41675 12.1683 8.24841 14 10.5001 14C11.1301 14 11.7134 13.8483 12.2501 13.5916C11.5151 12.5533 11.0834 11.2816 11.0834 9.91665C11.0834 8.55165 11.5151 7.27998 12.2501 6.24165C11.7134 5.98498 11.1301 5.83331 10.5001 5.83331C8.24841 5.83331 6.41675 7.66498 6.41675 9.91665Z" fill="black"/>
</svg>
