<svg width="28" height="28" viewBox="0 0 28 28" fill="none" xmlns="http://www.w3.org/2000/svg">
<path d="M13.9999 7.58331C15.6099 7.58331 16.9166 8.88998 16.9166 10.5C16.9166 11.3633 16.5316 12.1216 15.9482 12.6583L20.1832 16.8933C21.3266 14.7233 22.1666 12.46 22.1666 10.5C22.1666 5.98498 18.5149 2.33331 13.9999 2.33331C11.6899 2.33331 9.61325 3.30165 8.11992 4.84165L11.8416 8.56331C12.3783 7.95665 13.1366 7.58331 13.9999 7.58331ZM19.0983 18.7833L13.6966 13.3816L13.5683 13.2533L3.81492 3.49998L2.33325 4.98165L6.04325 8.69165C5.91492 9.27498 5.83325 9.88165 5.83325 10.5C5.83325 16.625 13.9999 25.6666 13.9999 25.6666C13.9999 25.6666 15.9482 23.5083 17.9432 20.5916L21.8516 24.5L23.3332 23.0183L19.0983 18.7833Z" fill="black"/>
</svg>
