<svg width="29" height="28" viewBox="0 0 29 28" fill="none" xmlns="http://www.w3.org/2000/svg">
<path fill-rule="evenodd" clip-rule="evenodd" d="M8.32358 10.6976C8.32358 12.7122 9.87456 14.351 11.7812 14.351C13.6878 14.351 15.2388 12.7122 15.2388 10.6976C15.2388 8.68308 13.6878 7.04431 11.7812 7.04431C9.87456 7.04431 8.32358 8.68308 8.32358 10.6976ZM18.6964 19.8309C18.6964 17.3989 14.0928 16.1776 11.7812 16.1776C9.46953 16.1776 4.86599 17.3989 4.86599 19.8309V21.6576H18.6964V19.8309ZM5.88779 16.2402C4.74184 17.117 3.95154 18.2861 3.95154 19.8309V21.6576H0V19.8309C0 17.7225 3.45759 16.5221 5.88779 16.2402ZM4.30482 12.944C4.75871 14.6687 6.43294 15.7157 8.03718 15.278C8.48604 15.1556 8.87107 14.926 9.20169 14.6251C8.46872 13.9726 7.90483 13.0825 7.62968 12.0369C7.35453 10.9913 7.40574 9.93335 7.7201 8.99514C7.286 8.90286 6.83982 8.90007 6.39096 9.02253C4.78672 9.4602 3.85093 11.2193 4.30482 12.944Z" fill="black"/>
<path d="M17.4919 16.1109C18.657 17.005 19.4606 18.197 19.4606 19.7722V21.6347H23.4782V19.7722C23.4782 17.6223 19.9628 16.3983 17.4919 16.1109Z" fill="black"/>
<path d="M16.6336 14.2361C18.5101 14.1748 19.9854 12.5024 19.9226 10.5078C19.8598 8.51315 18.2822 6.94044 16.4056 7.00173C15.8806 7.01888 15.3987 7.16911 14.9586 7.41108C15.6001 8.31087 15.9954 9.42562 16.0335 10.6348C16.0716 11.844 15.7473 12.9822 15.1637 13.922C15.6182 14.1348 16.1085 14.2532 16.6336 14.2361Z" fill="black"/>
<path d="M22.356 16.3013C23.4848 17.1645 24.2632 18.3155 24.2632 19.8363V21.6347H28.1553V19.8363C28.1553 17.7605 24.7497 16.5788 22.356 16.3013Z" fill="black"/>
<path d="M20.0511 15.368C21.5994 15.8977 23.3006 14.9493 23.8436 13.2537C24.3866 11.558 23.5688 9.74783 22.0206 9.21815C21.5874 9.06995 21.1497 9.04693 20.7188 9.11397C20.9738 10.0688 20.9639 11.128 20.6347 12.1559C20.3056 13.1838 19.7021 14.0398 18.9463 14.6489C19.2534 14.9684 19.6179 15.2198 20.0511 15.368Z" fill="black"/>
</svg>
