<svg width="28" height="28" viewBox="0 0 28 28" fill="none" xmlns="http://www.w3.org/2000/svg">
<path fill-rule="evenodd" clip-rule="evenodd" d="M13.9999 4.66663C16.5783 4.66663 18.6666 6.75496 18.6666 9.33329C18.6666 11.9116 16.5783 14 13.9999 14C11.4216 14 9.33325 11.9116 9.33325 9.33329C9.33325 6.75496 11.4216 4.66663 13.9999 4.66663ZM11.5499 9.33329C11.5499 7.97996 12.6466 6.88329 13.9999 6.88329C15.3533 6.88329 16.4499 7.97996 16.4499 9.33329C16.4499 10.6866 15.3533 11.7833 13.9999 11.7833C12.6466 11.7833 11.5499 10.6866 11.5499 9.33329ZM6.88325 19.8333C6.88325 19.0866 10.5349 17.3833 13.9999 17.3833C17.4649 17.3833 21.1166 19.0866 21.1166 19.8333V21.1166H6.88325V19.8333ZM23.3333 19.8333C23.3333 16.73 17.1149 15.1666 13.9999 15.1666C10.8849 15.1666 4.66659 16.73 4.66659 19.8333V23.3333H23.3333V19.8333Z" fill="black"/>
</svg>
