<svg width="16" height="16" viewBox="0 0 16 16" fill="none" xmlns="http://www.w3.org/2000/svg">
<path fill-rule="evenodd" clip-rule="evenodd" d="M5.63348 6.14223C5.63348 7.29938 6.54056 8.24069 7.65564 8.24069C8.77071 8.24069 9.6778 7.29938 9.6778 6.14223C9.6778 4.98507 8.77071 4.04376 7.65564 4.04376C6.54056 4.04376 5.63348 4.98507 5.63348 6.14223ZM11.7 11.3884C11.7 9.99141 9.0076 9.28992 7.65564 9.28992C6.30368 9.28992 3.61133 9.99141 3.61133 11.3884V12.4376H11.7V11.3884ZM4.04464 9.32593C3.37444 9.82956 2.91223 10.5011 2.91223 11.3884V12.4376H0.601199V11.3884C0.601199 10.1773 2.62335 9.48781 4.04464 9.32593ZM3.15552 7.43255C3.42097 8.42323 4.40013 9.02462 5.33837 8.77322C5.60088 8.70288 5.82607 8.57102 6.01943 8.39818C5.59075 8.0234 5.26097 7.51209 5.10004 6.91152C4.93912 6.31095 4.96907 5.70324 5.15292 5.16434C4.89904 5.11133 4.6381 5.10973 4.37559 5.18007C3.43735 5.43147 2.89006 6.44187 3.15552 7.43255Z" fill="black"/>
<path d="M10.7 9.25165C11.6078 9.76517 12.2338 10.4499 12.2338 11.3547V12.4245H15.3642V11.3547C15.3642 10.1198 12.6251 9.41671 10.7 9.25165Z" fill="black"/>
<path d="M10.5533 8.15754C11.6514 8.15754 12.5446 7.22506 12.5446 6.07877C12.5446 4.93248 11.6514 4 10.5533 4C10.2461 4 9.96166 4.07721 9.69995 4.20788C10.0584 4.73648 10.2689 5.38387 10.2689 6.07877C10.2689 6.77367 10.0584 7.42106 9.69995 7.94966C9.96166 8.08033 10.2461 8.15754 10.5533 8.15754Z" fill="black"/>
</svg>
