<svg width="36" height="44" viewBox="0 0 36 44" fill="none" xmlns="http://www.w3.org/2000/svg">
<g filter="url(#filter0_d_3974_65874)">
<path d="M28.1818 30L18 37.6364L7.81818 30L5.7812 28.642C4.6684 27.9001 4 26.6512 4 25.3138V6C4 3.79086 5.79086 2 8 2H28C30.2091 2 32 3.79086 32 6V25.3138C32 26.6512 31.3316 27.9001 30.2188 28.642L28.1818 30Z" fill="#FDCC4F"/>
<path d="M27.6271 29.1679L27.604 29.1833L27.5818 29.2L18 36.3864L8.41818 29.2L8.39598 29.1833L8.37288 29.1679L6.3359 27.81C5.5013 27.2536 5 26.3169 5 25.3138V6C5 4.34315 6.34315 3 8 3H28C29.6569 3 31 4.34315 31 6V25.3138C31 26.3169 30.4987 27.2536 29.6641 27.81L27.6271 29.1679Z" stroke="#FFC107" stroke-width="2"/>
</g>
<path d="M6.5459 6.54541C6.5459 5.44084 7.44133 4.54541 8.5459 4.54541H27.455C28.5596 4.54541 29.455 5.44084 29.455 6.54541V25.4545C29.455 26.5591 28.5596 27.4545 27.455 27.4545H8.5459C7.44133 27.4545 6.5459 26.5591 6.5459 25.4545V6.54541Z" fill="#FDCC4F"/>
<path d="M15.4972 17.6442C13.2796 17.6442 9.09082 18.753 9.09082 20.8474V22.449H21.9036V20.8474C21.9036 18.753 17.5916 17.6442 15.4972 17.6442ZM11.1852 20.7242C11.9244 20.2314 13.8956 19.6154 15.4972 19.6154C17.0988 19.6154 19.07 20.2314 19.8092 20.7242H11.1852ZM15.4972 16.0426C17.222 16.0426 18.7004 14.5642 18.7004 12.8394C18.7004 11.1146 17.222 9.63623 15.4972 9.63623C13.7724 9.63623 12.1708 10.9914 12.1708 12.8394C12.1708 14.6874 13.6492 16.0426 15.4972 16.0426ZM15.4972 11.361C16.2364 11.361 16.8524 11.977 16.8524 12.7162C16.8524 13.4554 16.2364 14.1946 15.4972 14.1946C14.758 14.1946 14.0188 13.5786 14.0188 12.8394C14.0188 12.1002 14.6348 11.361 15.4972 11.361ZM21.9036 17.7674C23.0124 18.5066 23.7516 19.6154 23.7516 20.9706V22.5722H27.4476V20.9706C27.4476 18.9994 24.2444 18.0138 21.9036 17.7674ZM20.918 16.0426C22.6428 16.0426 24.1212 14.5642 24.1212 12.8394C24.1212 11.1146 22.6428 9.63623 20.918 9.63623C20.4252 9.63623 19.9324 9.75943 19.5628 10.0058C20.1788 10.8682 20.5484 11.8538 20.5484 12.9626C20.5484 14.0714 20.1788 15.057 19.5628 15.9194C20.0556 15.9194 20.4252 16.0426 20.918 16.0426Z" fill="white"/>
<defs>
<filter id="filter0_d_3974_65874" x="0" y="0" width="36" height="43.6362" filterUnits="userSpaceOnUse" color-interpolation-filters="sRGB">
<feFlood flood-opacity="0" result="BackgroundImageFix"/>
<feColorMatrix in="SourceAlpha" type="matrix" values="0 0 0 0 0 0 0 0 0 0 0 0 0 0 0 0 0 0 127 0" result="hardAlpha"/>
<feOffset dy="2"/>
<feGaussianBlur stdDeviation="2"/>
<feComposite in2="hardAlpha" operator="out"/>
<feColorMatrix type="matrix" values="0 0 0 0 0 0 0 0 0 0 0 0 0 0 0 0 0 0 0.12 0"/>
<feBlend mode="normal" in2="BackgroundImageFix" result="effect1_dropShadow_3974_65874"/>
<feBlend mode="normal" in="SourceGraphic" in2="effect1_dropShadow_3974_65874" result="shape"/>
</filter>
</defs>
</svg>
