<svg width="27" height="24" viewBox="0 0 27 24" fill="none" xmlns="http://www.w3.org/2000/svg">
<path fill-rule="evenodd" clip-rule="evenodd" d="M8.67319 12C10.533 12 12.0459 10.43 12.0459 8.5C12.0459 6.57 10.533 5 8.67319 5C6.81337 5 5.30046 6.57 5.30046 8.5C5.30046 10.43 6.81337 12 8.67319 12ZM1.92773 17.25C1.92773 14.92 6.41828 13.75 8.67319 13.75C10.9281 13.75 15.4186 14.92 15.4186 17.25V19H1.92773V17.25ZM8.67319 15.75C6.94828 15.75 4.9921 16.42 4.18264 17H13.1637C12.3543 16.42 10.3981 15.75 8.67319 15.75ZM10.1186 8.5C10.1186 7.67 9.47301 7 8.67319 7C7.87337 7 7.22773 7.67 7.22773 8.5C7.22773 9.33 7.87337 10 8.67319 10C9.47301 10 10.1186 9.33 10.1186 8.5ZM15.4572 13.81C16.575 14.65 17.3459 15.77 17.3459 17.25V19H21.2005V17.25C21.2005 15.23 17.8277 14.08 15.4572 13.81ZM17.8277 8.5C17.8277 10.43 16.3148 12 14.455 12C13.9346 12 13.4528 11.87 13.0096 11.65C13.6166 10.76 13.9732 9.67 13.9732 8.5C13.9732 7.33 13.6166 6.24 13.0096 5.35C13.4528 5.13 13.9346 5 14.455 5C16.3148 5 17.8277 6.57 17.8277 8.5Z" fill="#777777"/>
<path d="M20.7568 13.8101C21.8747 14.6501 22.6456 15.7701 22.6456 17.2501V19.0001H26.5001V17.2501C26.5001 15.2301 23.1274 14.0801 20.7568 13.8101Z" fill="#777777"/>
<path d="M19.754 12C21.6139 12 23.1268 10.43 23.1268 8.5C23.1268 6.57 21.6139 5 19.754 5C19.2337 5 18.7519 5.13 18.3086 5.35C18.9157 6.24 19.2722 7.33 19.2722 8.5C19.2722 9.67 18.9157 10.76 18.3086 11.65C18.7519 11.87 19.2337 12 19.754 12Z" fill="#777777"/>
</svg>
