<svg width="20" height="20" viewBox="0 0 20 20" fill="none" xmlns="http://www.w3.org/2000/svg">
<path d="M19.388 9.944C19.388 15.1598 15.1598 19.388 9.944 19.388C4.72822 19.388 0.5 15.1598 0.5 9.944C0.5 4.72822 4.72822 0.5 9.944 0.5C15.1598 0.5 19.388 4.72822 19.388 9.944Z" fill="white" stroke="#707070"/>
<path fill-rule="evenodd" clip-rule="evenodd" d="M8.1661 8.5V9.828C7.82506 10.1196 7.55155 10.4819 7.36453 10.8898C7.17752 11.2976 7.08149 11.7413 7.0831 12.19C7.07242 12.9911 7.38017 13.7637 7.93874 14.338C8.49732 14.9123 9.26103 15.2414 10.0621 15.253C10.6483 15.2486 11.2201 15.0713 11.706 14.7435C12.192 14.4157 12.5705 13.9518 12.7941 13.41L13.4701 14.461C13.1096 15.041 12.6079 15.52 12.0119 15.8531C11.4158 16.1863 10.7449 16.3628 10.0621 16.366C8.96998 16.3499 7.92886 15.9012 7.16729 15.1182C6.40573 14.3353 5.98594 13.2821 6.0001 12.19C5.99735 11.4373 6.19694 10.6977 6.57798 10.0485C6.95903 9.39935 7.50753 8.86453 8.1661 8.5ZM13.5821 8.575C13.7298 8.575 13.8715 8.63368 13.976 8.73814C14.0804 8.8426 14.1391 8.98427 14.1391 9.132C14.1391 9.27973 14.0804 9.4214 13.976 9.52586C13.8715 9.63032 13.7298 9.689 13.5821 9.689C12.9401 9.689 11.8361 9.689 11.4161 9.689C11.4161 11.148 13.3881 10.205 14.2721 11.607C14.6651 12.23 15.3301 13.277 15.6721 13.886C15.7184 13.965 15.7438 14.0545 15.7461 14.146C15.7483 14.2458 15.7243 14.3445 15.6766 14.4322C15.6289 14.5199 15.5591 14.5936 15.4741 14.646C15.3486 14.7137 15.2019 14.7308 15.0642 14.6935C14.9266 14.6563 14.8084 14.5677 14.7341 14.446C14.3711 13.883 13.9491 13.214 13.6531 12.761C13.2291 12.112 12.9451 11.948 11.4131 11.92C10.3131 11.9 9.2471 11.68 9.2471 10.249V8.013C9.24596 7.71904 9.35971 7.43627 9.5641 7.225C9.66321 7.1218 9.78215 7.03968 9.91378 6.98359C10.0454 6.9275 10.187 6.89859 10.3301 6.89859C10.4732 6.89859 10.6148 6.9275 10.7464 6.98359C10.8781 7.03968 10.997 7.1218 11.0961 7.225C11.3002 7.43645 11.4139 7.7191 11.4131 8.013V8.57L13.5821 8.575ZM10.3331 3C10.7699 3.00658 11.1863 3.18625 11.4908 3.49954C11.7953 3.81284 11.963 4.23416 11.9571 4.671C11.9625 4.88772 11.9244 5.10333 11.8452 5.30513C11.766 5.50693 11.6472 5.69083 11.4958 5.84602C11.3444 6.0012 11.1635 6.12452 10.9638 6.20873C10.764 6.29293 10.5494 6.33631 10.3326 6.33631C10.1158 6.33631 9.90121 6.29293 9.70144 6.20873C9.50167 6.12452 9.32077 6.0012 9.16939 5.84602C9.01801 5.69083 8.89921 5.50693 8.81999 5.30513C8.74077 5.10333 8.70273 4.88772 8.7081 4.671C8.70223 4.23399 8.87008 3.81252 9.17478 3.49919C9.47948 3.18587 9.8961 3.00632 10.3331 3V3Z" fill="black"/>
</svg>
