<svg width="20" height="18" viewBox="0 0 20 18" fill="none" xmlns="http://www.w3.org/2000/svg">
<path d="M19.8995 5.89L18.8495 1.52C18.6295 0.62 17.8495 0 16.9395 0H3.04952C2.14952 0 1.35952 0.63 1.14952 1.52L0.0995183 5.89C-0.140482 6.91 0.0795184 7.95 0.719518 8.77C0.799518 8.88 0.909518 8.96 0.999518 9.06V16C0.999518 17.1 1.89952 18 2.99952 18H16.9995C18.0995 18 18.9995 17.1 18.9995 16V9.06C19.0895 8.97 19.1995 8.88 19.2795 8.78C19.9195 7.96 20.1495 6.91 19.8995 5.89ZM16.9095 1.99L17.9595 6.36C18.0595 6.78 17.9695 7.2 17.7095 7.53C17.5695 7.71 17.2695 8 16.7695 8C16.1595 8 15.6295 7.51 15.5595 6.86L14.9795 2L16.9095 1.99ZM10.9995 2H12.9595L13.4995 6.52C13.5495 6.91 13.4295 7.3 13.1695 7.59C12.9495 7.85 12.6295 8 12.2195 8C11.5495 8 10.9995 7.41 10.9995 6.69V2ZM6.48952 6.52L7.03952 2H8.99952V6.69C8.99952 7.41 8.44952 8 7.70952 8C7.36952 8 7.05952 7.85 6.81952 7.59C6.56952 7.3 6.44952 6.91 6.48952 6.52ZM2.03952 6.36L3.04952 2H5.01952L4.43952 6.86C4.35952 7.51 3.83952 8 3.22952 8C2.73952 8 2.42952 7.71 2.29952 7.53C2.02952 7.21 1.93952 6.78 2.03952 6.36ZM2.99952 16V9.97C3.07952 9.98 3.14952 10 3.22952 10C4.09952 10 4.88952 9.64 5.46952 9.05C6.06952 9.65 6.86952 10 7.77952 10C8.64952 10 9.42952 9.64 10.0095 9.07C10.5995 9.64 11.3995 10 12.2995 10C13.1395 10 13.9395 9.65 14.5395 9.05C15.1195 9.64 15.9095 10 16.7795 10C16.8595 10 16.9295 9.98 17.0095 9.97V16H2.99952Z" fill="#FDCC4F"/>
</svg>
