<svg width="192" height="192" viewBox="0 0 192 192" fill="none" xmlns="http://www.w3.org/2000/svg">
<path d="M96.0001 8.00001C78.5812 7.99013 61.5507 13.147 47.0633 22.8183C32.5759 32.4895 21.2825 46.2406 14.612 62.3316C7.94155 78.4227 6.19365 96.1308 9.58948 113.215C12.9853 130.3 21.3723 145.994 33.6893 158.311C46.0063 170.628 61.6999 179.015 78.7846 182.411C95.8693 185.806 113.577 184.059 129.668 177.388C145.76 170.718 159.511 159.424 169.182 144.937C178.853 130.449 184.01 113.419 184 96C184 72.661 174.729 50.2778 158.225 33.7746C141.722 17.2714 119.339 8.00001 96.0001 8.00001Z" fill="#FDCC4F"/>
<path d="M164.92 68.08C162.29 67.1505 159.501 66.7543 156.716 66.9146C153.931 67.0749 151.206 67.7885 148.7 69.0136C146.194 70.2387 143.957 71.9509 142.12 74.0501C140.283 76.1494 138.882 78.5935 138 81.24C133.737 77.7784 128.411 75.8924 122.92 75.9H86.92L80.93 60L75 75.9L68.93 60L62.93 76L62.82 76.3C56.9074 77.3358 51.5975 80.5496 47.9377 85.3076C44.278 90.0657 42.5341 96.0224 43.05 102.003C43.566 107.983 46.3043 113.553 50.7249 117.614C55.1455 121.675 60.9273 123.932 66.93 123.94H68.18V139.94C67.1192 139.94 66.1018 140.361 65.3516 141.112C64.6015 141.862 64.18 142.879 64.18 143.94C64.18 145.001 64.6015 146.018 65.3516 146.768C66.1018 147.519 67.1192 147.94 68.18 147.94H72.18C73.2409 147.94 74.2583 147.519 75.0085 146.768C75.7586 146.018 76.18 145.001 76.18 143.94V123.94H80.18V139.94C79.1192 139.94 78.1018 140.361 77.3516 141.112C76.6015 141.862 76.18 142.879 76.18 143.94C76.18 145.001 76.6015 146.018 77.3516 146.768C78.1018 147.519 79.1192 147.94 80.18 147.94H84.18C85.2409 147.94 86.2583 147.519 87.0085 146.768C87.7586 146.018 88.18 145.001 88.18 143.94V123.94H108.18V139.94C107.119 139.94 106.102 140.361 105.352 141.112C104.601 141.862 104.18 142.879 104.18 143.94C104.18 145.001 104.601 146.018 105.352 146.768C106.102 147.519 107.119 147.94 108.18 147.94H112.18C113.241 147.94 114.258 147.519 115.008 146.768C115.759 146.018 116.18 145.001 116.18 143.94V123.94H120.18V139.94C119.119 139.94 118.102 140.361 117.352 141.112C116.601 141.862 116.18 142.879 116.18 143.94C116.18 145.001 116.601 146.018 117.352 146.768C118.102 147.519 119.119 147.94 120.18 147.94H124.18C125.241 147.94 126.258 147.519 127.008 146.768C127.759 146.018 128.18 145.001 128.18 143.94V123.32C131.842 122.495 135.259 120.822 138.157 118.436C141.054 116.05 143.352 113.018 144.865 109.583C146.379 106.148 147.065 102.406 146.87 98.6578C146.674 94.9093 145.602 91.259 143.74 88H143.9C149.287 87.9977 154.467 85.9314 158.377 82.2263C162.287 78.5211 164.628 73.4586 164.92 68.08Z" fill="#F4511F"/>
<path d="M100.91 60.1197L95.7501 56.4397C95.8562 56.0924 95.8657 55.7227 95.7776 55.3703C95.6895 55.018 95.5071 54.6963 95.2501 54.4397C95.0019 54.1873 94.6913 54.0052 94.3498 53.9121C94.0083 53.8189 93.6482 53.8181 93.3063 53.9097C92.9644 54.0012 92.6529 54.1819 92.4036 54.4332C92.1544 54.6845 91.9763 54.9974 91.8875 55.3401C91.7988 55.6827 91.8025 56.0428 91.8984 56.3835C91.9943 56.7242 92.179 57.0334 92.4334 57.2794C92.6879 57.5255 93.0031 57.6996 93.3468 57.784C93.6906 57.8683 94.0506 57.86 94.3901 57.7597L98.0801 62.9997L88.1801 72.8997C89.6692 74.385 91.4364 75.5624 93.3806 76.3647C95.3248 77.167 97.408 77.5785 99.5113 77.5757C101.615 77.5729 103.697 77.1559 105.639 76.3484C107.581 75.541 109.345 74.3589 110.83 72.8697C112.315 71.3805 113.493 69.6134 114.295 67.6692C115.097 65.725 115.509 63.6418 115.506 61.5385C115.503 59.4353 115.086 57.3532 114.279 55.4111C113.471 53.469 112.289 51.705 110.8 50.2197L100.91 60.1197Z" fill="white"/>
<path d="M84.1801 55.8799C84.1801 55.8799 84.1301 47.8799 92.1801 47.8799" stroke="white" stroke-width="4" stroke-miterlimit="10"/>
<path d="M76.1801 55.8799C76.1801 55.8799 76.0901 39.8799 92.1801 39.8799" stroke="white" stroke-width="4" stroke-miterlimit="10"/>
<path d="M68.1801 55.8799C68.1801 55.8799 68.0401 31.8799 92.1801 31.8799" stroke="white" stroke-width="4" stroke-miterlimit="10"/>
<path d="M94.16 71.8799C94.16 71.8799 122.33 99.7099 94.16 127.88" stroke="white" stroke-width="8" stroke-miterlimit="10"/>
<path d="M104 123.88H88.1801V131.88H104V123.88Z" fill="#FDCC4F"/>
<path d="M66.87 96H47.1C44.9942 96 42.9746 96.8365 41.4856 98.3256C39.9966 99.8146 39.16 101.834 39.16 103.94C39.16 106.046 39.9966 108.065 41.4856 109.554C42.9746 111.043 44.9942 111.88 47.1 111.88H66.87C68.9759 111.88 70.9954 111.043 72.4845 109.554C73.9735 108.065 74.81 106.046 74.81 103.94C74.81 101.834 73.9735 99.8146 72.4845 98.3256C70.9954 96.8365 68.9759 96 66.87 96Z" fill="white"/>
<path d="M50.9301 99.8994H38.9301C37.8692 99.8994 36.8518 100.321 36.1016 101.071C35.3515 101.821 34.9301 102.839 34.9301 103.899C34.9301 104.96 35.3515 105.978 36.1016 106.728C36.8518 107.478 37.8692 107.899 38.9301 107.899H50.9301C51.9909 107.899 53.0083 107.478 53.7585 106.728C54.5086 105.978 54.9301 104.96 54.9301 103.899C54.9301 102.839 54.5086 101.821 53.7585 101.071C53.0083 100.321 51.9909 99.8994 50.9301 99.8994Z" fill="#F4511F"/>
<path d="M40.9301 103.899C42.0346 103.899 42.9301 103.004 42.9301 101.899C42.9301 100.795 42.0346 99.8994 40.9301 99.8994H36.9301C35.8255 99.8994 34.9301 100.795 34.9301 101.899C34.9301 103.004 35.8255 103.899 36.9301 103.899H40.9301Z" fill="black"/>
<path d="M54.87 92.0098C54.87 90.9052 53.9746 90.0098 52.87 90.0098C51.7654 90.0098 50.87 90.9052 50.87 92.0098V96.0098C50.87 97.1143 51.7654 98.0098 52.87 98.0098C53.9746 98.0098 54.87 97.1143 54.87 96.0098V92.0098Z" fill="black"/>
<path d="M66.87 92.0098C66.87 90.9052 65.9746 90.0098 64.87 90.0098C63.7654 90.0098 62.87 90.9052 62.87 92.0098V96.0098C62.87 97.1143 63.7654 98.0098 64.87 98.0098C65.9746 98.0098 66.87 97.1143 66.87 96.0098V92.0098Z" fill="black"/>
</svg>
