<svg width="34" height="30" viewBox="0 0 34 30" fill="none" xmlns="http://www.w3.org/2000/svg">
<circle cx="17" cy="15" r="12" fill="#AB47BC"/>
<path d="M16.9424 9.83445L21.9462 18.5911H11.9386L16.9424 9.83445ZM16.9424 7.15384L9.61536 19.8421H24.3587L16.9424 7.15384ZM17.6572 16.536H16.3169V17.8763H17.6572V16.536ZM17.6572 12.5151H16.3169V15.1957H17.6572V12.5151Z" fill="white"/>
<circle cx="28" cy="6" r="6" fill="#F4511F"/>
<path fill-rule="evenodd" clip-rule="evenodd" d="M28.3719 2.65358L28.0255 2.45358L27.8255 2.79999L25.9345 6.07532L25.7345 6.42173L26.0809 6.62173L27.1668 7.24867H25V8.04867H31V7.24867H29.2693L30.8347 4.53735L31.0347 4.19094L30.6882 3.99094L28.3719 2.65358ZM26.8273 6.12891L28.3183 3.5464L29.9418 4.48376L28.4508 7.06627L26.8273 6.12891Z" fill="white"/>
</svg>
