<svg width="32" height="38" viewBox="0 0 32 38" fill="none" xmlns="http://www.w3.org/2000/svg">
<g filter="url(#filter0_d)">
<path d="M16 32C22 28 28 20.6274 28 14C28 7.37258 22.6274 2 16 2C9.37258 2 4 7.37258 4 14C4 20.6274 10 28 16 32Z" fill="#FDCC4F"/>
</g>
<circle cx="16" cy="14" r="10" fill="white"/>
<path d="M14.0336 15.292C12.2912 15.292 9 16.1632 9 17.8088V19.0672H19.0672V17.8088C19.0672 16.1632 15.6792 15.292 14.0336 15.292ZM10.6456 17.712C11.2264 17.3248 12.7752 16.8408 14.0336 16.8408C15.292 16.8408 16.8408 17.3248 17.4216 17.712H10.6456ZM14.0336 14.0336C15.3888 14.0336 16.5504 12.872 16.5504 11.5168C16.5504 10.1616 15.3888 9 14.0336 9C12.6784 9 11.42 10.0648 11.42 11.5168C11.42 12.9688 12.5816 14.0336 14.0336 14.0336ZM14.0336 10.3552C14.6144 10.3552 15.0984 10.8392 15.0984 11.42C15.0984 12.0008 14.6144 12.5816 14.0336 12.5816C13.4528 12.5816 12.872 12.0976 12.872 11.5168C12.872 10.936 13.356 10.3552 14.0336 10.3552ZM19.0672 15.3888C19.9384 15.9696 20.5192 16.8408 20.5192 17.9056V19.164H23.4232V17.9056C23.4232 16.3568 20.9064 15.5824 19.0672 15.3888ZM18.2928 14.0336C19.648 14.0336 20.8096 12.872 20.8096 11.5168C20.8096 10.1616 19.648 9 18.2928 9C17.9056 9 17.5184 9.0968 17.228 9.2904C17.712 9.968 18.0024 10.7424 18.0024 11.6136C18.0024 12.4848 17.712 13.2592 17.228 13.9368C17.6152 13.9368 17.9056 14.0336 18.2928 14.0336Z" fill="#FFC107"/>
<circle cx="26" cy="8" r="6" fill="#FDD835"/>
<defs>
<filter id="filter0_d" x="0" y="0" width="32" height="38" filterUnits="userSpaceOnUse" color-interpolation-filters="sRGB">
<feFlood flood-opacity="0" result="BackgroundImageFix"/>
<feColorMatrix in="SourceAlpha" type="matrix" values="0 0 0 0 0 0 0 0 0 0 0 0 0 0 0 0 0 0 127 0" result="hardAlpha"/>
<feOffset dy="2"/>
<feGaussianBlur stdDeviation="2"/>
<feComposite in2="hardAlpha" operator="out"/>
<feColorMatrix type="matrix" values="0 0 0 0 0 0 0 0 0 0 0 0 0 0 0 0 0 0 0.12 0"/>
<feBlend mode="normal" in2="BackgroundImageFix" result="effect1_dropShadow"/>
<feBlend mode="normal" in="SourceGraphic" in2="effect1_dropShadow" result="shape"/>
</filter>
</defs>
</svg>
