<svg width="24" height="24" viewBox="0 0 24 24" fill="none" xmlns="http://www.w3.org/2000/svg">
<circle cx="12" cy="12" r="12" fill="#F4511F"/>
<path fill-rule="evenodd" clip-rule="evenodd" d="M8.98182 11.9997C10.2217 11.9997 11.2303 10.953 11.2303 9.66634C11.2303 8.37967 10.2217 7.33301 8.98182 7.33301C7.74194 7.33301 6.73334 8.37967 6.73334 9.66634C6.73334 10.953 7.74194 11.9997 8.98182 11.9997ZM4.48485 15.4997C4.48485 13.9463 7.47855 13.1663 8.98182 13.1663C10.4851 13.1663 13.4788 13.9463 13.4788 15.4997V16.6663H4.48485V15.4997ZM8.98183 14.4997C7.83189 14.4997 6.52777 14.9463 5.98814 15.333H11.9755C11.4359 14.9463 10.1318 14.4997 8.98183 14.4997ZM9.94546 9.66634C9.94546 9.11301 9.51503 8.66634 8.98182 8.66634C8.44861 8.66634 8.01818 9.11301 8.01818 9.66634C8.01818 10.2197 8.44861 10.6663 8.98182 10.6663C9.51503 10.6663 9.94546 10.2197 9.94546 9.66634ZM13.5045 13.2063C14.2497 13.7663 14.7636 14.513 14.7636 15.4997V16.6663H17.3333V15.4997C17.3333 14.153 15.0848 13.3863 13.5045 13.2063ZM15.0849 9.66634C15.0849 10.953 14.0762 11.9997 12.8364 11.9997C12.4895 11.9997 12.1682 11.913 11.8727 11.7663C12.2775 11.173 12.5152 10.4463 12.5152 9.66634C12.5152 8.88634 12.2775 8.15967 11.8727 7.56634C12.1682 7.41967 12.4895 7.33301 12.8364 7.33301C14.0762 7.33301 15.0849 8.37967 15.0849 9.66634Z" fill="white"/>
<path d="M17.0378 13.207C17.7831 13.767 18.297 14.5137 18.297 15.5004V16.667H20.8667V15.5004C20.8667 14.1537 18.6182 13.387 17.0378 13.207Z" fill="white"/>
<path d="M16.3697 12.0007C17.6096 12.0007 18.6182 10.954 18.6182 9.66732C18.6182 8.38065 17.6096 7.33398 16.3697 7.33398C16.0228 7.33398 15.7016 7.42065 15.4061 7.56732C15.8108 8.16065 16.0485 8.88732 16.0485 9.66732C16.0485 10.4473 15.8108 11.174 15.4061 11.7673C15.7016 11.914 16.0228 12.0007 16.3697 12.0007Z" fill="white"/>
</svg>
