<svg width="32" height="38" viewBox="0 0 32 38" fill="none" xmlns="http://www.w3.org/2000/svg">
<g filter="url(#filter0_d)">
<path d="M16 32C22 28 28 20.6274 28 14C28 7.37258 22.6274 2 16 2C9.37258 2 4 7.37258 4 14C4 20.6274 10 28 16 32Z" fill="#CE93D8"/>
</g>
<circle cx="16" cy="14" r="10" fill="white"/>
<path d="M15.9376 8.904L21.3584 18.3904H10.5168L15.9376 8.904ZM15.9376 6L8 19.7456H23.972L15.9376 6ZM16.712 16.164H15.26V17.616H16.712V16.164ZM16.712 11.808H15.26V14.712H16.712V11.808Z" fill="#AB47BC"/>
<circle cx="26" cy="8" r="6" fill="#F4511F"/>
<path fill-rule="evenodd" clip-rule="evenodd" d="M26.3719 4.65361L26.0255 4.45361L25.8255 4.80002L23.9345 8.07535L23.7345 8.42176L24.0809 8.62176L25.1668 9.2487H23V10.0487H29V9.2487H27.2693L28.8347 6.53738L29.0347 6.19097L28.6882 5.99097L26.3719 4.65361ZM24.8273 8.12894L26.3183 5.54643L27.9418 6.48379L26.4508 9.0663L24.8273 8.12894Z" fill="white"/>
<defs>
<filter id="filter0_d" x="0" y="0" width="32" height="38" filterUnits="userSpaceOnUse" color-interpolation-filters="sRGB">
<feFlood flood-opacity="0" result="BackgroundImageFix"/>
<feColorMatrix in="SourceAlpha" type="matrix" values="0 0 0 0 0 0 0 0 0 0 0 0 0 0 0 0 0 0 127 0" result="hardAlpha"/>
<feOffset dy="2"/>
<feGaussianBlur stdDeviation="2"/>
<feComposite in2="hardAlpha" operator="out"/>
<feColorMatrix type="matrix" values="0 0 0 0 0 0 0 0 0 0 0 0 0 0 0 0 0 0 0.12 0"/>
<feBlend mode="normal" in2="BackgroundImageFix" result="effect1_dropShadow"/>
<feBlend mode="normal" in="SourceGraphic" in2="effect1_dropShadow" result="shape"/>
</filter>
</defs>
</svg>
