<svg width="24" height="24" viewBox="0 0 24 24" fill="none" xmlns="http://www.w3.org/2000/svg">
<circle cx="12" cy="12" r="12" fill="#FFC107"/>
<path d="M10.1849 12.2695C8.57648 12.2695 5.53845 13.0737 5.53845 14.5927V15.7543H14.8313V14.5927C14.8313 13.0737 11.7039 12.2695 10.1849 12.2695ZM7.05747 14.5034C7.59359 14.146 9.02325 13.6992 10.1849 13.6992C11.3465 13.6992 12.7761 14.146 13.3122 14.5034H7.05747ZM10.1849 11.1079C11.4358 11.1079 12.5081 10.0357 12.5081 8.78475C12.5081 7.53379 11.4358 6.46155 10.1849 6.46155C8.9339 6.46155 7.7723 7.44444 7.7723 8.78475C7.7723 10.1251 8.84454 11.1079 10.1849 11.1079ZM10.1849 7.7125C10.721 7.7125 11.1677 8.15927 11.1677 8.69539C11.1677 9.23152 10.721 9.76764 10.1849 9.76764C9.64873 9.76764 9.11261 9.32087 9.11261 8.78475C9.11261 8.24862 9.55938 7.7125 10.1849 7.7125ZM14.8313 12.3589C15.6354 12.895 16.1716 13.6992 16.1716 14.6821V15.8437H18.8522V14.6821C18.8522 13.2524 16.529 12.5376 14.8313 12.3589ZM14.1164 11.1079C15.3674 11.1079 16.4396 10.0357 16.4396 8.78475C16.4396 7.53379 15.3674 6.46155 14.1164 6.46155C13.759 6.46155 13.4016 6.5509 13.1335 6.72961C13.5803 7.35509 13.8484 8.06992 13.8484 8.8741C13.8484 9.67829 13.5803 10.3931 13.1335 11.0186C13.4909 11.0186 13.759 11.1079 14.1164 11.1079Z" fill="white"/>
</svg>
