<svg width="39" height="35" viewBox="0 0 39 35" fill="none" xmlns="http://www.w3.org/2000/svg">
<path d="M2.06302 34.0625H36.7505C38.2505 34.0625 39.0005 32.5625 38.438 31.25L21.0005 1.25C20.2505 -0.0625 18.3755 -0.0625 17.813 1.25L0.375517 31.25C-0.186983 32.5625 0.750518 34.0625 2.06302 34.0625ZM19.5005 22.625C18.0005 22.625 16.688 21.3125 16.688 19.625V13.8125C16.688 12.125 18.0005 10.8125 19.5005 10.8125C21.0005 10.8125 22.313 12.125 22.313 13.8125V19.8125C22.313 21.3125 21.0005 22.625 19.5005 22.625ZM22.313 27.875C22.313 29.375 21.0005 30.6875 19.5005 30.6875C18.0005 30.6875 16.688 29.375 16.688 27.875C16.688 26.375 18.0005 25.0625 19.5005 25.0625C21.0005 25.0625 22.313 26.375 22.313 27.875Z" fill="#FFC841"/>
</svg>
