<svg width="28" height="28" viewBox="0 0 28 28" fill="none" xmlns="http://www.w3.org/2000/svg">
<path d="M12 28C18.6274 28 24 22.6274 24 16C24 9.37258 18.6274 4 12 4C5.37258 4 0 9.37258 0 16C0 22.6274 5.37258 28 12 28Z" fill="#FDCC4F"/>
<path d="M20.6602 18.9999L13.7302 6.99987C13.5544 6.6968 13.3021 6.44522 12.9984 6.27034C12.6948 6.09547 12.3506 6.00342 12.0002 6.00342C11.6498 6.00342 11.3056 6.09547 11.002 6.27034C10.6984 6.44522 10.446 6.6968 10.2702 6.99987L3.34022 18.9999C3.16477 19.3038 3.07236 19.6485 3.07227 19.9994C3.07218 20.3503 3.16441 20.695 3.3397 20.999C3.515 21.303 3.76718 21.5555 4.07093 21.7312C4.37469 21.9068 4.71932 21.9995 5.07022 21.9999H18.9302C19.2811 21.9995 19.6257 21.9068 19.9295 21.7312C20.2332 21.5555 20.4854 21.303 20.6607 20.999C20.836 20.695 20.9283 20.3503 20.9282 19.9994C20.9281 19.6485 20.8357 19.3038 20.6602 18.9999ZM5.00022 19.9999L12.0002 7.99987L19.0002 19.9999H5.00022Z" fill="white"/>
<path d="M12 19C12.5523 19 13 18.5523 13 18C13 17.4477 12.5523 17 12 17C11.4477 17 11 17.4477 11 18C11 18.5523 11.4477 19 12 19Z" fill="white"/>
<path d="M12 13C12.5523 13 13 12.5523 13 12C13 11.4477 12.5523 11 12 11C11.4477 11 11 11.4477 11 12C11 12.5523 11.4477 13 12 13Z" fill="white"/>
<path d="M11.5 16H12.5L13 12H11L11.5 16Z" fill="white"/>
<path d="M22 0C18.688 0 16 2.688 16 6C16 9.312 18.688 12 22 12C25.312 12 28 9.312 28 6C28 2.688 25.312 0 22 0ZM22 6.6C21.67 6.6 21.4 6.33 21.4 6V3.6C21.4 3.27 21.67 3 22 3C22.33 3 22.6 3.27 22.6 3.6V6C22.6 6.33 22.33 6.6 22 6.6ZM22.6 9H21.4V7.8H22.6V9Z" fill="#F4511F"/>
</svg>
