<svg width="24" height="24" viewBox="0 0 24 24" fill="none" xmlns="http://www.w3.org/2000/svg">
<path d="M12 24C18.6274 24 24 18.6274 24 12C24 5.37258 18.6274 0 12 0C5.37258 0 0 5.37258 0 12C0 18.6274 5.37258 24 12 24Z" fill="#F4511F"/>
<path d="M12 6C13.1046 6 14 5.10457 14 4C14 2.89543 13.1046 2 12 2C10.8954 2 10 2.89543 10 4C10 5.10457 10.8954 6 12 6Z" fill="white"/>
<path d="M10 18.9996C9.29152 19.0007 8.60553 18.7509 8.06353 18.2947C7.52152 17.8384 7.15849 17.2051 7.03871 16.5068C6.91894 15.8085 7.05016 15.0904 7.40913 14.4796C7.76811 13.8688 8.33167 13.4047 9 13.1696V11.0996C8.11509 11.2805 7.2957 11.6977 6.62887 12.3069C5.96204 12.9161 5.47268 13.6945 5.21277 14.5595C4.95286 15.4245 4.93212 16.3438 5.15273 17.2196C5.37335 18.0955 5.82709 18.8952 6.46575 19.5339C7.10441 20.1725 7.90414 20.6263 8.77999 20.8469C9.65584 21.0675 10.5751 21.0467 11.4401 20.7868C12.3051 20.5269 13.0835 20.0376 13.6927 19.3707C14.3019 18.7039 14.7191 17.8845 14.9 16.9996H12.83C12.6231 17.5848 12.2398 18.0914 11.733 18.4496C11.2261 18.8078 10.6207 18.9999 10 18.9996Z" fill="white"/>
<path d="M14 8.14032L13.64 7.74032C13.4596 7.5482 13.2418 7.39506 13 7.29032C12.6434 7.07159 12.2272 6.97016 11.81 7.00032C11.3132 7.04773 10.852 7.2792 10.5171 7.64926C10.1822 8.01932 9.99774 8.50123 10 9.00032H14V8.14032Z" fill="white"/>
<path d="M17 13.5H14V10.05V9H10V14C10 14.5304 10.2107 15.0391 10.5858 15.4142C10.9609 15.7893 11.4696 16 12 16H17V19H19V15.5C19 14.9696 18.7893 14.4609 18.4142 14.0858C18.0391 13.7107 17.5304 13.5 17 13.5Z" fill="white"/>
<path d="M19 19H17V20H19V19Z" fill="white"/>
<path d="M19 10.9999C18.2325 10.9896 17.4753 10.8218 16.7752 10.507C16.0751 10.1922 15.4471 9.73716 14.93 9.16992L14 8.16992V11.0799C15.4173 12.2401 17.1704 12.9133 19 12.9999V10.9999Z" fill="white"/>
</svg>
