<svg width="46" height="46" viewBox="0 0 46 46" fill="none" xmlns="http://www.w3.org/2000/svg">
<path d="M28.6252 21.8747C30.8752 21.8747 32.6752 20.0747 32.6752 17.8247C32.6752 15.5747 30.8752 13.7747 28.6252 13.7747C26.3752 13.7747 24.5752 15.5747 24.5752 17.8247C24.5752 20.0747 26.3752 21.8747 28.6252 21.8747ZM17.6002 21.8747C19.8502 21.8747 21.6502 20.0747 21.6502 17.8247C21.6502 15.5747 19.8502 13.7747 17.6002 13.7747C15.3502 13.7747 13.5502 15.3497 13.5502 17.5997C13.5502 19.8497 15.3502 21.8747 17.6002 21.8747ZM17.6002 24.5747C14.4502 24.5747 7.92519 26.1497 7.92519 29.5247V31.5497C7.92519 32.2247 8.60019 32.8997 9.27519 32.8997H25.9252C26.6002 32.8997 27.2752 32.2247 27.2752 31.5497V29.5247C27.2752 26.1497 20.7502 24.5747 17.6002 24.5747ZM28.6252 24.5747C28.1752 24.5747 27.7252 24.5747 27.2752 24.5747C28.8502 25.6997 29.9752 27.2747 29.9752 29.2997V31.3247C29.9752 31.7747 29.9752 32.2247 29.7502 32.6747H36.9502C37.6252 32.6747 38.3002 31.9997 38.3002 31.3247V29.2997C38.3002 26.1497 31.7752 24.5747 28.6252 24.5747ZM45.0502 22.9997C45.0502 35.1497 35.1502 45.0497 23.0002 45.0497C10.8502 45.0497 0.950195 35.1497 0.950195 22.9997C0.950195 10.8497 10.8502 0.949707 23.0002 0.949707C35.1502 0.949707 45.0502 10.8497 45.0502 22.9997Z" fill="#FFC841"/>
</svg>
