<svg width="32" height="38" viewBox="0 0 32 38" fill="none" xmlns="http://www.w3.org/2000/svg">

<path d="M16 32C22 28 28 20.6274 28 14C28 7.37258 22.6274 2 16 2C9.37258 2 4 7.37258 4 14C4 20.6274 10 28 16 32Z" fill="#F4511F"/>

<path fill-rule="evenodd" clip-rule="evenodd" d="M14.4849 8.452V7H23.8745V20.1648H19.6153V18.616H22.5193V8.5488H15.9369V9.5168L14.4849 8.452ZM8 12.808V20.068H12.356V16.4864H13.808V20.1648H18.164V12.808L13.0336 9.22644L8 12.808ZM16.712 18.616H15.1632V14.9376H10.904V18.616H9.3552V13.5824L13.0336 11.0656L16.712 13.5824V18.616ZM21.0679 9.90398H19.6159V11.356H21.0679V9.90398ZM21.0679 12.808H19.6159V14.26H21.0679V12.808ZM19.6159 15.712H21.0679V17.164H19.6159V15.712Z" fill="white"/>
<defs>
<filter id="filter0_d_3568:52457" x="0" y="0" width="32" height="38" filterUnits="userSpaceOnUse" color-interpolation-filters="sRGB">
<feFlood flood-opacity="0" result="BackgroundImageFix"/>
<feColorMatrix in="SourceAlpha" type="matrix" values="0 0 0 0 0 0 0 0 0 0 0 0 0 0 0 0 0 0 127 0" result="hardAlpha"/>
<feOffset dy="2"/>
<feGaussianBlur stdDeviation="2"/>
<feComposite in2="hardAlpha" operator="out"/>
<feColorMatrix type="matrix" values="0 0 0 0 0 0 0 0 0 0 0 0 0 0 0 0 0 0 0.12 0"/>
<feBlend mode="normal" in2="BackgroundImageFix" result="effect1_dropShadow_3568:52457"/>
<feBlend mode="normal" in="SourceGraphic" in2="effect1_dropShadow_3568:52457" result="shape"/>
</filter>
</defs>
</svg>
