<svg width="24" height="24" viewBox="0 0 24 24" fill="none" xmlns="http://www.w3.org/2000/svg">
<circle cx="12" cy="12" r="12" fill="#42A5F5"/>
<path fill-rule="evenodd" clip-rule="evenodd" d="M10.6014 6.87876V5.53845H19.2687V17.6906H15.3372V16.2609H18.0178V6.96811H11.9417V7.86165L10.6014 6.87876ZM4.61536 10.8997V17.6012H8.63628V14.2952H9.97659V17.6906H13.9975V10.8997L9.26176 7.59362L4.61536 10.8997ZM12.6572 16.2609H11.2275V12.8655H7.29597V16.2609H5.86631V11.6145L9.26176 9.29134L12.6572 11.6145V16.2609ZM16.678 8.21904H15.3377V9.55935H16.678V8.21904ZM16.678 10.8997H15.3377V12.24H16.678V10.8997ZM15.3377 13.5803H16.678V14.9206H15.3377V13.5803Z" fill="white"/>
</svg>
