<svg width="28" height="28" viewBox="0 0 28 28" fill="none" xmlns="http://www.w3.org/2000/svg">
<circle cx="14" cy="14" r="14" fill="#81EF9A"/>
<circle cx="14" cy="14" r="12" fill="#FDCC4F"/>
<path fill-rule="evenodd" clip-rule="evenodd" d="M10.9818 14C12.2217 14 13.2303 12.9533 13.2303 11.6667C13.2303 10.38 12.2217 9.33334 10.9818 9.33334C9.74189 9.33334 8.73329 10.38 8.73329 11.6667C8.73329 12.9533 9.74189 14 10.9818 14ZM6.4848 17.5C6.4848 15.9467 9.4785 15.1667 10.9818 15.1667C12.485 15.1667 15.4787 15.9467 15.4787 17.5V18.6667H6.4848V17.5ZM10.9818 16.5C9.83185 16.5 8.52772 16.9467 7.98809 17.3333H13.9755C13.4358 16.9467 12.1317 16.5 10.9818 16.5ZM11.9454 11.6667C11.9454 11.1133 11.515 10.6667 10.9818 10.6667C10.4486 10.6667 10.0181 11.1133 10.0181 11.6667C10.0181 12.22 10.4486 12.6667 10.9818 12.6667C11.515 12.6667 11.9454 12.22 11.9454 11.6667ZM15.5044 15.2067C16.2496 15.7667 16.7636 16.5133 16.7636 17.5V18.6667H19.3333V17.5C19.3333 16.1533 17.0848 15.3867 15.5044 15.2067ZM17.0848 11.6667C17.0848 12.9533 16.0762 14 14.8363 14C14.4894 14 14.1682 13.9133 13.8727 13.7667C14.2774 13.1733 14.5151 12.4467 14.5151 11.6667C14.5151 10.8867 14.2774 10.16 13.8727 9.56668C14.1682 9.42001 14.4894 9.33334 14.8363 9.33334C16.0762 9.33334 17.0848 10.38 17.0848 11.6667Z" fill="white"/>
<path d="M19.0378 15.2067C19.7831 15.7667 20.297 16.5134 20.297 17.5001V18.6667H22.8667V17.5001C22.8667 16.1534 20.6182 15.3867 19.0378 15.2067Z" fill="white"/>
<path d="M18.3696 14C19.6095 14 20.6181 12.9533 20.6181 11.6666C20.6181 10.38 19.6095 9.33331 18.3696 9.33331C18.0227 9.33331 17.7015 9.41998 17.406 9.56665C17.8107 10.16 18.0484 10.8866 18.0484 11.6666C18.0484 12.4466 17.8107 13.1733 17.406 13.7666C17.7015 13.9133 18.0227 14 18.3696 14Z" fill="white"/>
</svg>
