<svg width="24" height="24" viewBox="0 0 24 24" fill="none" xmlns="http://www.w3.org/2000/svg">
<path d="M12 24C18.6274 24 24 18.6274 24 12C24 5.37258 18.6274 0 12 0C5.37258 0 0 5.37258 0 12C0 18.6274 5.37258 24 12 24Z" fill="#FDCC4F"/>
<path d="M20.6602 14.9999L13.7302 2.99987C13.5544 2.6968 13.3021 2.44522 12.9984 2.27034C12.6948 2.09547 12.3506 2.00342 12.0002 2.00342C11.6498 2.00342 11.3056 2.09547 11.002 2.27034C10.6984 2.44522 10.446 2.6968 10.2702 2.99987L3.34022 14.9999C3.16477 15.3038 3.07236 15.6485 3.07227 15.9994C3.07218 16.3503 3.16441 16.695 3.3397 16.999C3.515 17.303 3.76718 17.5555 4.07093 17.7312C4.37469 17.9068 4.71932 17.9995 5.07022 17.9999H18.9302C19.2811 17.9995 19.6257 17.9068 19.9295 17.7312C20.2332 17.5555 20.4854 17.303 20.6607 16.999C20.836 16.695 20.9283 16.3503 20.9282 15.9994C20.9281 15.6485 20.8357 15.3038 20.6602 14.9999ZM5.00022 15.9999L12.0002 3.99987L19.0002 15.9999H5.00022Z" fill="white"/>
<path d="M12 15C12.5523 15 13 14.5523 13 14C13 13.4477 12.5523 13 12 13C11.4477 13 11 13.4477 11 14C11 14.5523 11.4477 15 12 15Z" fill="white"/>
<path d="M12 9C12.5523 9 13 8.55228 13 8C13 7.44772 12.5523 7 12 7C11.4477 7 11 7.44772 11 8C11 8.55228 11.4477 9 12 9Z" fill="white"/>
<path d="M11.5 12H12.5L13 8H11L11.5 12Z" fill="white"/>
</svg>
