<svg width="43" height="42" viewBox="0 0 43 42" fill="none" xmlns="http://www.w3.org/2000/svg">
<path d="M31.9205 20.0249C31.9205 19.2624 31.4121 18.4999 30.6496 18.4999C28.6163 18.2458 26.5829 16.9749 25.3121 15.7041L23.2788 13.4166C23.0246 13.1624 22.7704 12.9083 22.2621 12.6541C21.7538 12.3999 20.9913 12.1458 20.2288 12.1458C18.4496 12.3999 17.4329 13.9249 17.4329 15.4499V25.1083C17.4329 26.8874 18.9579 28.4124 20.7371 28.4124H29.1246V35.0208C29.1246 36.0374 29.8871 36.7999 30.9038 36.7999C31.9204 36.7999 32.6829 36.0374 32.6829 35.0208V27.6499C32.6829 25.8708 31.158 24.3458 29.3788 24.3458H24.2955V18.4999C26.0746 19.7708 28.3621 21.0416 30.6496 21.5499C30.9038 21.8041 31.9205 21.0416 31.9205 20.0249ZM21.7538 30.1916C20.9913 32.2249 19.2121 33.4958 17.1788 33.4958C14.3829 33.4958 12.0954 31.2083 12.0954 28.4124C12.0954 26.1249 13.3663 24.3458 15.3996 23.8374V20.5333C11.5871 21.0416 8.79128 24.3458 8.79128 28.4124C8.79128 32.9874 12.6038 36.7999 17.1788 36.7999C21.2454 36.7999 24.5496 34.0041 25.3121 30.1916H21.7538ZM42.0871 41.3749H0.912109V0.454102H42.0871V41.3749Z" fill="#FFC841"/>
</svg>
