<svg width="26" height="26" viewBox="0 0 26 26" fill="none" xmlns="http://www.w3.org/2000/svg">
<rect width="26" height="26" fill="#42A5F5"/>
<path fill-rule="evenodd" clip-rule="evenodd" d="M11.4849 7.452V6H20.8745V19.1648H16.6153V17.616H19.5193V7.5488H12.9369V8.5168L11.4849 7.452ZM5 11.808V19.068H9.356V15.4864H10.808V19.1648H15.164V11.808L10.0336 8.22644L5 11.808ZM13.712 17.616H12.1632V13.9376H7.904V17.616H6.3552V12.5824L10.0336 10.0656L13.712 12.5824V17.616ZM18.0679 8.90398H16.6159V10.356H18.0679V8.90398ZM18.0679 11.808H16.6159V13.26H18.0679V11.808ZM16.6159 14.712H18.0679V16.164H16.6159V14.712Z" fill="white"/>
</svg>
