<svg width="26" height="26" viewBox="0 0 26 26" fill="none" xmlns="http://www.w3.org/2000/svg">
<rect width="26" height="26" fill="#FFC107"/>
<path d="M11.0336 13.292C9.2912 13.292 6 14.1632 6 15.8088V17.0672H16.0672V15.8088C16.0672 14.1632 12.6792 13.292 11.0336 13.292ZM7.6456 15.712C8.2264 15.3248 9.7752 14.8408 11.0336 14.8408C12.292 14.8408 13.8408 15.3248 14.4216 15.712H7.6456ZM11.0336 12.0336C12.3888 12.0336 13.5504 10.872 13.5504 9.5168C13.5504 8.1616 12.3888 7 11.0336 7C9.6784 7 8.42 8.0648 8.42 9.5168C8.42 10.9688 9.5816 12.0336 11.0336 12.0336ZM11.0336 8.3552C11.6144 8.3552 12.0984 8.8392 12.0984 9.42C12.0984 10.0008 11.6144 10.5816 11.0336 10.5816C10.4528 10.5816 9.872 10.0976 9.872 9.5168C9.872 8.936 10.356 8.3552 11.0336 8.3552ZM16.0672 13.3888C16.9384 13.9696 17.5192 14.8408 17.5192 15.9056V17.164H20.4232V15.9056C20.4232 14.3568 17.9064 13.5824 16.0672 13.3888ZM15.2928 12.0336C16.648 12.0336 17.8096 10.872 17.8096 9.5168C17.8096 8.1616 16.648 7 15.2928 7C14.9056 7 14.5184 7.0968 14.228 7.2904C14.712 7.968 15.0024 8.7424 15.0024 9.6136C15.0024 10.4848 14.712 11.2592 14.228 11.9368C14.6152 11.9368 14.9056 12.0336 15.2928 12.0336Z" fill="white"/>
</svg>
