<svg width="48" height="48" viewBox="0 0 48 48" fill="none" xmlns="http://www.w3.org/2000/svg">
<rect width="48" height="48" rx="8" fill="#90CAF9"/>
<path fill-rule="evenodd" clip-rule="evenodd" d="M21.2021 13.7575V11.0769H38.5368V35.3812H30.6736V32.5218H36.0348V13.9362H23.8827V15.7233L21.2021 13.7575ZM9.23047 21.7996V35.2026H17.2723V28.5905H19.9529V35.3813H27.9948V21.7996L18.5233 15.1874L9.23047 21.7996ZM25.3142 32.522H22.4548V25.7311H14.5917V32.522H11.7324V23.2292L18.5233 18.5828L25.3142 23.2292V32.522ZM33.3561 16.4382H30.6755V19.1188H33.3561V16.4382ZM33.3561 21.7995H30.6755V24.4801H33.3561V21.7995ZM30.6755 27.1605H33.3561V29.8411H30.6755V27.1605Z" fill="white"/>
</svg>
