<svg width="24" height="24" viewBox="0 0 24 24" fill="none" xmlns="http://www.w3.org/2000/svg">
<path d="M12 24C18.6274 24 24 18.6274 24 12C24 5.37258 18.6274 0 12 0C5.37258 0 0 5.37258 0 12C0 18.6274 5.37258 24 12 24Z" fill="#FDCC4F"/>
<path fill-rule="evenodd" clip-rule="evenodd" d="M9.85449 10.2573V11.8599C9.44294 12.2117 9.11287 12.6489 8.88719 13.1411C8.66151 13.6333 8.54562 14.1688 8.54757 14.7102C8.53468 15.6769 8.90606 16.6092 9.58012 17.3023C10.2542 17.9954 11.1758 18.3925 12.1425 18.4065C12.8499 18.4012 13.5399 18.1873 14.1263 17.7917C14.7128 17.3961 15.1695 16.8363 15.4394 16.1825L16.2551 17.4508C15.8202 18.1506 15.2147 18.7287 14.4954 19.1307C13.7761 19.5328 12.9665 19.7458 12.1425 19.7496C10.8246 19.7303 9.5682 19.1887 8.64917 18.2439C7.73014 17.2991 7.22357 16.0282 7.24065 14.7102C7.23733 13.8019 7.47818 12.9093 7.93802 12.1259C8.39785 11.3426 9.05976 10.6972 9.85449 10.2573ZM16.3903 10.3478C16.5686 10.3478 16.7395 10.4186 16.8656 10.5447C16.9916 10.6707 17.0625 10.8417 17.0625 11.02C17.0625 11.1982 16.9916 11.3692 16.8656 11.4952C16.7395 11.6213 16.5686 11.6921 16.3903 11.6921C15.6156 11.6921 14.2833 11.6921 13.7765 11.6921C13.7765 13.4528 16.1562 12.3148 17.223 14.0067C17.6972 14.7585 18.4997 16.022 18.9124 16.7569C18.9683 16.8522 18.999 16.9602 19.0017 17.0706C19.0043 17.1911 18.9754 17.3101 18.9178 17.416C18.8602 17.5218 18.776 17.6108 18.6735 17.674C18.522 17.7558 18.345 17.7763 18.1789 17.7314C18.0127 17.6865 17.8701 17.5796 17.7805 17.4327C17.3424 16.7533 16.8332 15.9459 16.476 15.3993C15.9643 14.6161 15.6216 14.4182 13.7728 14.3844C12.4454 14.3603 11.159 14.0948 11.159 12.3679V9.66959C11.1576 9.31486 11.2949 8.97362 11.5415 8.71867C11.6611 8.59413 11.8047 8.49504 11.9635 8.42735C12.1224 8.35966 12.2932 8.32477 12.4659 8.32477C12.6386 8.32477 12.8095 8.35966 12.9683 8.42735C13.1272 8.49504 13.2707 8.59413 13.3903 8.71867C13.6366 8.97384 13.7738 9.31493 13.7728 9.66959V10.3418L16.3903 10.3478ZM12.4695 3.62012C12.9967 3.62806 13.4991 3.84487 13.8666 4.22294C14.234 4.60102 14.4364 5.10945 14.4293 5.63661C14.4358 5.89814 14.3899 6.15833 14.2943 6.40185C14.1987 6.64537 14.0553 6.8673 13.8726 7.05457C13.69 7.24184 13.4717 7.39066 13.2306 7.49227C12.9895 7.59389 12.7305 7.64623 12.4689 7.64623C12.2073 7.64623 11.9483 7.59389 11.7073 7.49227C11.4662 7.39066 11.2479 7.24184 11.0652 7.05457C10.8825 6.8673 10.7392 6.64537 10.6436 6.40185C10.548 6.15833 10.5021 5.89814 10.5086 5.63661C10.5015 5.10924 10.704 4.60063 11.0717 4.22252C11.4394 3.84442 11.9422 3.62775 12.4695 3.62012V3.62012Z" fill="white"/>
</svg>
