<svg width="24" height="24" viewBox="0 0 24 24" fill="none" xmlns="http://www.w3.org/2000/svg">
<path d="M12 24C18.6274 24 24 18.6274 24 12C24 5.37258 18.6274 0 12 0C5.37258 0 0 5.37258 0 12C0 18.6274 5.37258 24 12 24Z" fill="#FDCC4F"/>
<path d="M20.66 15.0004L13.73 3.00036C13.5542 2.69728 13.3018 2.44571 12.9982 2.27083C12.6946 2.09595 12.3504 2.00391 12 2.00391C11.6496 2.00391 11.3054 2.09595 11.0018 2.27083C10.6982 2.44571 10.4458 2.69728 10.27 3.00036L3.34 15.0004C3.16455 15.3043 3.07214 15.649 3.07205 15.9999C3.07196 16.3507 3.16419 16.6955 3.33949 16.9995C3.51478 17.3035 3.76697 17.556 4.07072 17.7316C4.37447 17.9073 4.7191 18 5.07 18.0004H18.93C19.2809 18 19.6255 17.9073 19.9293 17.7316C20.233 17.556 20.4852 17.3035 20.6605 16.9995C20.8358 16.6955 20.928 16.3507 20.928 15.9999C20.9279 15.649 20.8355 15.3043 20.66 15.0004ZM5 16.0004L12 4.00036L19 16.0004H5Z" fill="white"/>
<path d="M12 15C12.5523 15 13 14.5523 13 14C13 13.4477 12.5523 13 12 13C11.4477 13 11 13.4477 11 14C11 14.5523 11.4477 15 12 15Z" fill="white"/>
<path d="M12 9C12.5523 9 13 8.55228 13 8C13 7.44772 12.5523 7 12 7C11.4477 7 11 7.44772 11 8C11 8.55228 11.4477 9 12 9Z" fill="white"/>
<path d="M11.5 12H12.5L13 8H11L11.5 12Z" fill="white"/>
</svg>
