<svg width="615" height="611" viewBox="0 0 615 611" fill="none" xmlns="http://www.w3.org/2000/svg">
<path d="M553.712 172.738H59.2788V586.233H553.712V172.738Z" fill="white"/>
<path d="M0.130371 0.0640869V610.462H612.864L614.38 0.0640869H0.130371ZM238.247 540.788C171.514 540.788 113.88 484.747 113.88 416.588C113.88 356.003 154.83 306.02 212.464 298.447V346.915C182.13 354.488 163.93 381.752 163.93 415.074C163.93 457.484 197.297 490.805 239.764 490.805C270.097 490.805 295.88 472.63 308.014 442.337H359.58C348.964 499.893 298.914 540.788 238.247 540.788ZM473.33 515.04C473.33 530.186 461.197 542.303 446.03 542.303C430.864 542.303 418.73 530.186 418.73 515.04V416.588H294.364C268.58 416.588 245.83 395.384 245.83 368.12V224.23C245.83 201.51 260.997 178.791 288.297 174.247C300.43 174.247 311.047 177.276 318.63 181.82C326.214 186.364 330.764 190.908 333.797 193.937L364.13 227.259C382.33 246.949 412.664 266.64 442.997 269.669C453.614 269.669 461.197 280.271 461.197 292.388C461.197 307.535 446.03 318.137 442.997 315.108C409.63 307.535 376.264 287.845 348.964 269.669V357.518H424.797C450.58 357.518 473.33 378.723 473.33 405.986V515.04Z" fill="#FFC841"/>
<path d="M289.811 57.6174C317.111 57.6174 339.861 80.3369 339.861 107.6C339.861 134.864 317.111 157.583 289.811 157.583C262.511 157.583 239.761 134.864 239.761 107.6C239.761 80.3369 260.994 57.6174 289.811 57.6174Z" fill="white"/>
</svg>
