<svg width="48" height="48" viewBox="0 0 48 48" fill="none" xmlns="http://www.w3.org/2000/svg">
<path d="M20.3709 24.5391C17.1542 24.5391 11.0781 26.1475 11.0781 29.1855V31.5087H29.6637V29.1855C29.6637 26.1475 23.409 24.5391 20.3709 24.5391ZM14.1162 29.0068C15.1884 28.292 18.0477 27.3984 20.3709 27.3984C22.6941 27.3984 25.5534 28.292 26.6257 29.0068H14.1162ZM20.3709 22.2159C22.8728 22.2159 25.0173 20.0714 25.0173 17.5695C25.0173 15.0676 22.8728 12.9231 20.3709 12.9231C17.869 12.9231 15.5458 14.8889 15.5458 17.5695C15.5458 20.2501 17.6903 22.2159 20.3709 22.2159ZM20.3709 15.425C21.4432 15.425 22.3367 16.3185 22.3367 17.3908C22.3367 18.463 21.4432 19.5353 20.3709 19.5353C19.2987 19.5353 18.2264 18.6417 18.2264 17.5695C18.2264 16.4972 19.12 15.425 20.3709 15.425ZM29.6637 24.7178C31.2721 25.79 32.3443 27.3984 32.3443 29.3642V31.6874H37.7056V29.3642C37.7056 26.5049 33.0592 25.0752 29.6637 24.7178ZM28.2341 22.2159C30.736 22.2159 32.8805 20.0714 32.8805 17.5695C32.8805 15.0676 30.736 12.9231 28.2341 12.9231C27.5192 12.9231 26.8044 13.1018 26.2683 13.4592C27.1618 14.7102 27.6979 16.1398 27.6979 17.7482C27.6979 19.3566 27.1618 20.7862 26.2683 22.0372C26.9831 22.0372 27.5192 22.2159 28.2341 22.2159Z" fill="#FFC107"/>
</svg>
