<svg width="30" height="30" viewBox="0 0 30 30" fill="none" xmlns="http://www.w3.org/2000/svg">
<circle cx="15" cy="15" r="15" fill="#FDCC4F"/>
<path fill-rule="evenodd" clip-rule="evenodd" d="M11.2277 15.0003C12.7775 15.0003 14.0383 13.692 14.0383 12.0837C14.0383 10.4753 12.7775 9.16699 11.2277 9.16699C9.67781 9.16699 8.41705 10.4753 8.41705 12.0837C8.41705 13.692 9.67781 15.0003 11.2277 15.0003ZM5.60645 19.3753C5.60645 17.4337 9.34857 16.4587 11.2277 16.4587C13.1067 16.4587 16.8489 17.4337 16.8489 19.3753V20.8337H5.60645V19.3753ZM11.2277 18.1253C9.79024 18.1253 8.16009 18.6837 7.48554 19.167H14.9698C14.2952 18.6837 12.6651 18.1253 11.2277 18.1253ZM12.4322 12.0837C12.4322 11.392 11.8942 10.8337 11.2277 10.8337C10.5611 10.8337 10.0231 11.392 10.0231 12.0837C10.0231 12.7753 10.5611 13.3337 11.2277 13.3337C11.8942 13.3337 12.4322 12.7753 12.4322 12.0837ZM16.881 16.5087C17.8125 17.2087 18.4549 18.142 18.4549 19.3753V20.8337H21.667V19.3753C21.667 17.692 18.8564 16.7337 16.881 16.5087ZM18.8564 12.0837C18.8564 13.692 17.5957 15.0003 16.0458 15.0003C15.6122 15.0003 15.2107 14.892 14.8413 14.7087C15.3472 13.967 15.6443 13.0587 15.6443 12.0837C15.6443 11.1087 15.3472 10.2003 14.8413 9.45866C15.2107 9.27533 15.6122 9.16699 16.0458 9.16699C17.5957 9.16699 18.8564 10.4753 18.8564 12.0837Z" fill="white"/>
<path d="M21.2969 16.5088C22.2284 17.2088 22.8708 18.1421 22.8708 19.3755V20.8338H26.0829V19.3755C26.0829 17.6921 23.2723 16.7338 21.2969 16.5088Z" fill="white"/>
<path d="M20.4624 15.0003C22.0122 15.0003 23.273 13.692 23.273 12.0837C23.273 10.4753 22.0122 9.16699 20.4624 9.16699C20.0287 9.16699 19.6272 9.27533 19.2578 9.45866C19.7637 10.2003 20.0608 11.1087 20.0608 12.0837C20.0608 13.0587 19.7637 13.967 19.2578 14.7087C19.6272 14.892 20.0287 15.0003 20.4624 15.0003Z" fill="white"/>
</svg>
