<svg width="14" height="10" viewBox="0 0 14 10" fill="none" xmlns="http://www.w3.org/2000/svg">
<path fill-rule="evenodd" clip-rule="evenodd" d="M6.66675 2.66665C6.66675 3.95331 7.71341 4.99998 9.00008 4.99998C10.2867 4.99998 11.3334 3.95331 11.3334 2.66665C11.3334 1.37998 10.2867 0.333313 9.00008 0.333313C7.71341 0.333313 6.66675 1.37998 6.66675 2.66665ZM13.6667 8.49998C13.6667 6.94665 10.5601 6.16665 9.00008 6.16665C7.44008 6.16665 4.33342 6.94665 4.33342 8.49998V9.66665H13.6667V8.49998ZM4.30675 6.20665C3.53341 6.76665 3.00008 7.51331 3.00008 8.49998V9.66665H0.333412V8.49998C0.333412 7.15331 2.66675 6.38665 4.30675 6.20665ZM2.66675 2.66665C2.66675 3.95331 3.71342 4.99998 5.00008 4.99998C5.36008 4.99998 5.69341 4.91331 6.00008 4.76665C5.58008 4.17331 5.33341 3.44665 5.33341 2.66665C5.33341 1.88665 5.58008 1.15998 6.00008 0.566646C5.69341 0.41998 5.36008 0.333313 5.00008 0.333313C3.71342 0.333313 2.66675 1.37998 2.66675 2.66665Z" fill="black"/>
</svg>
