<svg width="16" height="16" viewBox="0 0 16 16" fill="none" xmlns="http://www.w3.org/2000/svg">
<path d="M7.99992 4.33331C8.91992 4.33331 9.66659 5.07998 9.66659 5.99998C9.66659 6.49331 9.44659 6.92665 9.11325 7.23331L11.5333 9.65331C12.1866 8.41331 12.6666 7.11998 12.6666 5.99998C12.6666 3.41998 10.5799 1.33331 7.99992 1.33331C6.67992 1.33331 5.49325 1.88665 4.63992 2.76665L6.76659 4.89331C7.07325 4.54665 7.50659 4.33331 7.99992 4.33331ZM10.9133 10.7333L7.82659 7.64665L7.75325 7.57331L2.17992 1.99998L1.33325 2.84665L3.45325 4.96665C3.37992 5.29998 3.33325 5.64665 3.33325 5.99998C3.33325 9.49998 7.99992 14.6666 7.99992 14.6666C7.99992 14.6666 9.11325 13.4333 10.2533 11.7666L12.4866 14L13.3333 13.1533L10.9133 10.7333Z" fill="black"/>
</svg>
