<svg width="20" height="20" viewBox="0 0 20 20" fill="none" xmlns="http://www.w3.org/2000/svg">
<path d="M12.0833 11.467V3.75033C12.0833 3.19779 11.8638 2.66789 11.4731 2.27719C11.0824 1.88649 10.5525 1.66699 10 1.66699C9.44747 1.66699 8.91756 1.88649 8.52686 2.27719C8.13616 2.66789 7.91667 3.19779 7.91667 3.75033V11.467C7.24773 11.9139 6.74027 12.5642 6.46923 13.3217C6.19818 14.0791 6.17793 14.9037 6.41146 15.6736C6.645 16.4434 7.11993 17.1178 7.76611 17.5971C8.4123 18.0763 9.19549 18.335 10 18.335C10.8045 18.335 11.5877 18.0763 12.2339 17.5971C12.8801 17.1178 13.355 16.4434 13.5885 15.6736C13.8221 14.9037 13.8018 14.0791 13.5308 13.3217C13.2597 12.5642 12.7523 11.9139 12.0833 11.467Z" stroke="#14181F" stroke-width="1.5" stroke-linecap="round" stroke-linejoin="round"/>
<path d="M10 8.33398L11.6667 8.33398" stroke="#14181F" stroke-width="1.5" stroke-linecap="round" stroke-linejoin="round"/>
<path d="M10 5.83398L11.6667 5.83398" stroke="#14181F" stroke-width="1.5" stroke-linecap="round" stroke-linejoin="round"/>
</svg>
