<svg width="32" height="38" viewBox="0 0 32 38" fill="none" xmlns="http://www.w3.org/2000/svg">
<g filter="url(#filter0_d_742_22701)">
<path d="M16 32C22 28 28 20.6274 28 14C28 7.37258 22.6274 2 16 2C9.37258 2 4 7.37258 4 14C4 20.6274 10 28 16 32Z" fill="#FCA6D4"/>
</g>
<circle cx="16" cy="14" r="10" fill="white"/>
<path d="M17.8333 15.8V8.08333C17.8333 7.5308 17.6138 7.0009 17.2231 6.61019C16.8324 6.21949 16.3025 6 15.75 6C15.1975 6 14.6676 6.21949 14.2769 6.61019C13.8862 7.0009 13.6667 7.5308 13.6667 8.08333V15.8C12.9977 16.247 12.4903 16.8972 12.2192 17.6547C11.9482 18.4121 11.9279 19.2367 12.1615 20.0066C12.395 20.7765 12.8699 21.4508 13.5161 21.9301C14.1623 22.4093 14.9455 22.668 15.75 22.668C16.5545 22.668 17.3377 22.4093 17.9839 21.9301C18.6301 21.4508 19.105 20.7765 19.3385 20.0066C19.5721 19.2367 19.5518 18.4121 19.2808 17.6547C19.0097 16.8972 18.5023 16.247 17.8333 15.8Z" stroke="#D364A0" stroke-width="1.5" stroke-linecap="round" stroke-linejoin="round"/>
<path d="M15.75 12.6666L17.4167 12.6666" stroke="#D364A0" stroke-width="1.5" stroke-linecap="round" stroke-linejoin="round"/>
<path d="M15.75 10.1666L17.4167 10.1666" stroke="#D364A0" stroke-width="1.5" stroke-linecap="round" stroke-linejoin="round"/>
<defs>
<filter id="filter0_d_742_22701" x="0" y="0" width="32" height="38" filterUnits="userSpaceOnUse" color-interpolation-filters="sRGB">
<feFlood flood-opacity="0" result="BackgroundImageFix"/>
<feColorMatrix in="SourceAlpha" type="matrix" values="0 0 0 0 0 0 0 0 0 0 0 0 0 0 0 0 0 0 127 0" result="hardAlpha"/>
<feOffset dy="2"/>
<feGaussianBlur stdDeviation="2"/>
<feComposite in2="hardAlpha" operator="out"/>
<feColorMatrix type="matrix" values="0 0 0 0 0 0 0 0 0 0 0 0 0 0 0 0 0 0 0.12 0"/>
<feBlend mode="normal" in2="BackgroundImageFix" result="effect1_dropShadow_742_22701"/>
<feBlend mode="normal" in="SourceGraphic" in2="effect1_dropShadow_742_22701" result="shape"/>
</filter>
</defs>
</svg>
