<svg width="18" height="29" viewBox="0 0 18 29" fill="none" xmlns="http://www.w3.org/2000/svg">
<path d="M9 28.2701C9 28.2753 9.01026 28.2857 9.01026 28.2857C9.01026 28.2857 18 14.3066 18 9.71266C18 2.95173 13.4436 0.0103934 9 0C4.55644 0.0103934 0 2.95173 0 9.71266C0 14.3066 8.99487 28.2857 8.99487 28.2857L9 28.2701ZM5.88541 9.3281C5.88541 7.58201 7.28107 6.1685 9.00513 6.1685C10.7292 6.1685 12.1249 7.58201 12.1249 9.3281C12.1249 11.0742 10.7241 12.4877 9 12.4877C7.28107 12.4877 5.88541 11.0742 5.88541 9.3281Z" fill="#97948E"/>
</svg>
