<svg width="20" height="20" viewBox="0 0 20 20" fill="none" xmlns="http://www.w3.org/2000/svg">
<path d="M14.1665 13.5234C16.1085 13.981 17.4998 15.2157 17.4998 16.6671" stroke="#14181F" stroke-width="1.5" stroke-linecap="round" stroke-linejoin="round"/>
<path d="M2.5 16.6663C2.5 14.8254 4.73858 13.333 7.5 13.333C10.2614 13.333 12.5 14.8254 12.5 16.6663" stroke="#14181F" stroke-width="1.5" stroke-linecap="round" stroke-linejoin="round"/>
<path d="M12.5 10.8337C14.3409 10.8337 15.8333 9.34127 15.8333 7.50033C15.8333 5.65938 14.3409 4.16699 12.5 4.16699" stroke="#14181F" stroke-width="1.5" stroke-linecap="round" stroke-linejoin="round"/>
<path d="M7.49984 10.8337C9.34079 10.8337 10.8332 9.34127 10.8332 7.50033C10.8332 5.65938 9.34079 4.16699 7.49984 4.16699C5.65889 4.16699 4.1665 5.65938 4.1665 7.50033C4.1665 9.34127 5.65889 10.8337 7.49984 10.8337Z" stroke="#14181F" stroke-width="1.5" stroke-linecap="round" stroke-linejoin="round"/>
</svg>
