<svg width="32" height="38" viewBox="0 0 32 38" fill="none" xmlns="http://www.w3.org/2000/svg">
<g filter="url(#filter0_d_1601_8950)">
<path d="M16 32C22 28 28 20.6274 28 14C28 7.37258 22.6274 2 16 2C9.37258 2 4 7.37258 4 14C4 20.6274 10 28 16 32Z" fill="#FDCC4F"/>
</g>
<circle cx="16" cy="14" r="10" fill="#FDCC4F"/>
<path d="M10.75 20.75C10.75 19.0931 13.1005 17.75 16 17.75C18.8995 17.75 21.25 19.0931 21.25 20.75" stroke="white" stroke-width="1.5" stroke-linecap="round" stroke-linejoin="round"/>
<path d="M16 14.75C18.0711 14.75 19.75 13.0711 19.75 11C19.75 8.92893 18.0711 7.25 16 7.25C13.9289 7.25 12.25 8.92893 12.25 11C12.25 13.0711 13.9289 14.75 16 14.75Z" stroke="white" stroke-width="1.5" stroke-linecap="round" stroke-linejoin="round"/>
<defs>
<filter id="filter0_d_1601_8950" x="0" y="0" width="32" height="38" filterUnits="userSpaceOnUse" color-interpolation-filters="sRGB">
<feFlood flood-opacity="0" result="BackgroundImageFix"/>
<feColorMatrix in="SourceAlpha" type="matrix" values="0 0 0 0 0 0 0 0 0 0 0 0 0 0 0 0 0 0 127 0" result="hardAlpha"/>
<feOffset dy="2"/>
<feGaussianBlur stdDeviation="2"/>
<feComposite in2="hardAlpha" operator="out"/>
<feColorMatrix type="matrix" values="0 0 0 0 0 0 0 0 0 0 0 0 0 0 0 0 0 0 0.12 0"/>
<feBlend mode="normal" in2="BackgroundImageFix" result="effect1_dropShadow_1601_8950"/>
<feBlend mode="normal" in="SourceGraphic" in2="effect1_dropShadow_1601_8950" result="shape"/>
</filter>
</defs>
</svg>
