<svg width="20" height="21" viewBox="0 0 20 21" fill="none" xmlns="http://www.w3.org/2000/svg">
<path d="M17.5 15.0374C17.5 15.3812 17.3563 15.7109 17.1006 15.954C16.8449 16.1971 16.498 16.3337 16.1364 16.3337H3.86364C3.50198 16.3337 3.15513 16.1971 2.8994 15.954C2.64367 15.7109 2.5 15.3812 2.5 15.0374V7.90773C2.5 7.56393 2.64367 7.23422 2.8994 6.99111C3.15513 6.74801 3.50198 6.61144 3.86364 6.61144H6.59091L7.95455 4.66699H12.0455L13.4091 6.61144H16.1364C16.498 6.61144 16.8449 6.74801 17.1006 6.99111C17.3563 7.23422 17.5 7.56393 17.5 7.90773V15.0374Z" stroke="#FDCC4F" stroke-width="2" stroke-linecap="round" stroke-linejoin="round"/>
<path d="M10 13.833C11.3807 13.833 12.5 12.7137 12.5 11.333C12.5 9.9523 11.3807 8.83301 10 8.83301C8.61929 8.83301 7.5 9.9523 7.5 11.333C7.5 12.7137 8.61929 13.833 10 13.833Z" stroke="#FDCC4F" stroke-width="2" stroke-linecap="round" stroke-linejoin="round"/>
</svg>
