<svg width="32" height="38" viewBox="0 0 32 38" fill="none" xmlns="http://www.w3.org/2000/svg">
<g filter="url(#filter0_d_1601_8968)">
<path d="M16 32C22 28 28 20.6274 28 14C28 7.37258 22.6274 2 16 2C9.37258 2 4 7.37258 4 14C4 20.6274 10 28 16 32Z" fill="#FDCC4F"/>
</g>
<circle cx="16" cy="14" r="10" fill="#FDCC4F"/>
<path d="M19.75 17.1707C21.4978 17.5825 22.75 18.6937 22.75 19.9999" stroke="white" stroke-width="1.5" stroke-linecap="round" stroke-linejoin="round"/>
<path d="M9.25 20C9.25 18.3431 11.2647 17 13.75 17C16.2353 17 18.25 18.3431 18.25 20" stroke="white" stroke-width="1.5" stroke-linecap="round" stroke-linejoin="round"/>
<path d="M18.25 14.75C19.9069 14.75 21.25 13.4069 21.25 11.75C21.25 10.0931 19.9069 8.75 18.25 8.75" stroke="white" stroke-width="1.5" stroke-linecap="round" stroke-linejoin="round"/>
<path d="M13.75 14.75C15.4069 14.75 16.75 13.4069 16.75 11.75C16.75 10.0931 15.4069 8.75 13.75 8.75C12.0931 8.75 10.75 10.0931 10.75 11.75C10.75 13.4069 12.0931 14.75 13.75 14.75Z" stroke="white" stroke-width="1.5" stroke-linecap="round" stroke-linejoin="round"/>
<defs>
<filter id="filter0_d_1601_8968" x="0" y="0" width="32" height="38" filterUnits="userSpaceOnUse" color-interpolation-filters="sRGB">
<feFlood flood-opacity="0" result="BackgroundImageFix"/>
<feColorMatrix in="SourceAlpha" type="matrix" values="0 0 0 0 0 0 0 0 0 0 0 0 0 0 0 0 0 0 127 0" result="hardAlpha"/>
<feOffset dy="2"/>
<feGaussianBlur stdDeviation="2"/>
<feComposite in2="hardAlpha" operator="out"/>
<feColorMatrix type="matrix" values="0 0 0 0 0 0 0 0 0 0 0 0 0 0 0 0 0 0 0.12 0"/>
<feBlend mode="normal" in2="BackgroundImageFix" result="effect1_dropShadow_1601_8968"/>
<feBlend mode="normal" in="SourceGraphic" in2="effect1_dropShadow_1601_8968" result="shape"/>
</filter>
</defs>
</svg>
