<svg width="20" height="20" viewBox="0 0 20 20" fill="none" xmlns="http://www.w3.org/2000/svg">
<path d="M10 16.667H16.6667" stroke="#FDCC4F" stroke-width="2" stroke-linecap="round" stroke-linejoin="round"/>
<path d="M13.4195 3.89007C13.5961 3.71346 13.8058 3.57336 14.0366 3.47778C14.2673 3.3822 14.5146 3.33301 14.7644 3.33301C15.0142 3.33301 15.2615 3.3822 15.4922 3.47778C15.723 3.57336 15.9327 3.71346 16.1093 3.89007C16.2859 4.06668 16.426 4.27635 16.5216 4.5071C16.6171 4.73786 16.6663 4.98518 16.6663 5.23494C16.6663 5.48471 16.6171 5.73203 16.5216 5.96278C16.426 6.19353 16.2859 6.4032 16.1093 6.57981L7.0314 15.6577L3.33301 16.6663L4.34166 12.9679L13.4195 3.89007Z" stroke="#FDCC4F" stroke-width="2" stroke-linecap="round" stroke-linejoin="round"/>
</svg>
