<svg width="32" height="38" viewBox="0 0 32 38" fill="none" xmlns="http://www.w3.org/2000/svg">
<g filter="url(#filter0_d_296_2086)">
<path d="M16 32C22 28 28 20.6274 28 14C28 7.37258 22.6274 2 16 2C9.37258 2 4 7.37258 4 14C4 20.6274 10 28 16 32Z" fill="#D3AAB1"/>
</g>
<circle cx="16" cy="14" r="10" fill="white"/>
<path d="M15.75 9.05249L12 12.0525H9V16.5525H12L15.75 19.5525V9.05249Z" stroke="#B63349" stroke-width="1.5" stroke-linecap="round" stroke-linejoin="round"/>
<path d="M20.3025 9C21.7086 10.4065 22.4984 12.3138 22.4984 14.3025C22.4984 16.2912 21.7086 18.1985 20.3025 19.605M18.405 11.6475C19.108 12.3507 19.503 13.3044 19.503 14.2988C19.503 15.2931 19.108 16.2468 18.405 16.95" stroke="#B63349" stroke-width="1.5" stroke-linecap="round" stroke-linejoin="round"/>
<defs>
<filter id="filter0_d_296_2086" x="0" y="0" width="32" height="38" filterUnits="userSpaceOnUse" color-interpolation-filters="sRGB">
<feFlood flood-opacity="0" result="BackgroundImageFix"/>
<feColorMatrix in="SourceAlpha" type="matrix" values="0 0 0 0 0 0 0 0 0 0 0 0 0 0 0 0 0 0 127 0" result="hardAlpha"/>
<feOffset dy="2"/>
<feGaussianBlur stdDeviation="2"/>
<feComposite in2="hardAlpha" operator="out"/>
<feColorMatrix type="matrix" values="0 0 0 0 0 0 0 0 0 0 0 0 0 0 0 0 0 0 0.12 0"/>
<feBlend mode="normal" in2="BackgroundImageFix" result="effect1_dropShadow_296_2086"/>
<feBlend mode="normal" in="SourceGraphic" in2="effect1_dropShadow_296_2086" result="shape"/>
</filter>
</defs>
</svg>
