<svg width="20" height="20" viewBox="0 0 20 20" fill="none" xmlns="http://www.w3.org/2000/svg">
<path d="M2.91683 18.3337V14.167M2.91683 5.83366V1.66699M0.833496 3.75033H5.00016M0.833496 16.2503H5.00016M17.0835 5.83366V1.66699M15.0002 3.75033H19.1668M10.0002 2.50033L8.68265 5.92585C8.40064 6.65908 8.25963 7.0257 8.04036 7.33408C7.84602 7.60739 7.60723 7.84618 7.33392 8.04052C7.02554 8.2598 6.65892 8.4008 5.92569 8.68281L2.50016 10.0003L5.92569 11.3178C6.65892 11.5998 7.02554 11.7409 7.33392 11.9601C7.60723 12.1545 7.84602 12.3933 8.04036 12.6666C8.25963 12.975 8.40064 13.3416 8.68265 14.0748L10.0002 17.5003L11.7158 13.7831C12.0058 13.1548 12.1508 12.8407 12.3556 12.5743C12.5372 12.3381 12.753 12.1302 12.9959 11.9576C13.2698 11.763 13.5892 11.6299 14.2279 11.3638L17.5002 10.0003L14.2279 8.63687C13.5892 8.37074 13.2698 8.23768 12.9959 8.04303C12.753 7.8704 12.5372 7.66255 12.3556 7.42632C12.1508 7.15995 12.0058 6.84582 11.7158 6.21758L10.0002 2.50033Z" stroke="black" stroke-width="1.5" stroke-linecap="round" stroke-linejoin="round"/>
</svg>
