<svg width="12" height="19" viewBox="0 0 12 19" fill="none" xmlns="http://www.w3.org/2000/svg">
<path d="M5.89655 18.5218C5.89655 18.5252 5.90328 18.532 5.90328 18.532C5.90328 18.532 11.7931 9.37326 11.7931 6.36347C11.7931 1.93389 8.80785 0.00680949 5.89655 0C2.98526 0.00680949 0 1.93389 0 6.36347C0 9.37326 5.89319 18.532 5.89319 18.532L5.89655 18.5218ZM3.85595 6.11152C3.85595 4.96752 4.77036 4.04143 5.89991 4.04143C7.02947 4.04143 7.94387 4.96752 7.94387 6.11152C7.94387 7.25551 7.02611 8.1816 5.89655 8.1816C4.77036 8.1816 3.85595 7.25551 3.85595 6.11152Z" fill="#FDCC4F"/>
</svg>
