<svg width="20" height="20" viewBox="0 0 20 20" fill="none" xmlns="http://www.w3.org/2000/svg">
<path d="M2.5 4.5C2.5 3.39543 3.39543 2.5 4.5 2.5H15.5C16.6046 2.5 17.5 3.39543 17.5 4.5V15.5C17.5 16.6046 16.6046 17.5 15.5 17.5H4.5C3.39543 17.5 2.5 16.6046 2.5 15.5V4.5Z" stroke="#FDCC4F" stroke-width="2" stroke-linecap="round" stroke-linejoin="round"/>
<path d="M11.25 13.333C11.25 14.0234 10.6904 14.583 10 14.583C9.30964 14.583 8.75 14.0234 8.75 13.333C8.75 12.6427 9.30964 12.083 10 12.083C10.6904 12.083 11.25 12.6427 11.25 13.333Z" fill="#FDCC4F"/>
<path d="M8.82149 6.5955C9.14618 6.27081 9.5715 6.1081 9.99706 6.10735C10.4246 6.1066 10.8523 6.26932 11.1785 6.5955C11.5039 6.92094 11.6667 7.34748 11.6667 7.77402C11.6667 8.20055 11.5039 8.62709 11.1785 8.95253C10.8523 9.27871 10.4246 9.44143 9.99706 9.44068L10 10.274" stroke="#FDCC4F" stroke-width="2" stroke-linecap="round" stroke-linejoin="round"/>
</svg>
