<svg width="20" height="20" viewBox="0 0 20 20" fill="none" xmlns="http://www.w3.org/2000/svg">
<path d="M9.99967 3.33366C11.833 3.33366 13.333 4.83366 13.333 6.66699C13.333 8.41699 11.583 11.2503 9.99967 13.2503C8.41634 11.167 6.66634 8.41699 6.66634 6.66699C6.66634 4.83366 8.16634 3.33366 9.99967 3.33366ZM9.99967 1.66699C7.24967 1.66699 4.99967 3.91699 4.99967 6.66699C4.99967 10.417 9.99967 15.8337 9.99967 15.8337C9.99967 15.8337 14.9997 10.3337 14.9997 6.66699C14.9997 3.91699 12.7497 1.66699 9.99967 1.66699ZM9.99967 5.00033C9.08301 5.00033 8.33301 5.75033 8.33301 6.66699C8.33301 7.58366 9.08301 8.33366 9.99967 8.33366C10.9163 8.33366 11.6663 7.58366 11.6663 6.66699C11.6663 5.75033 10.9163 5.00033 9.99967 5.00033ZM16.6663 15.8337C16.6663 17.667 13.6663 19.167 9.99967 19.167C6.33301 19.167 3.33301 17.667 3.33301 15.8337C3.33301 14.7503 4.33301 13.8337 5.91634 13.167L6.41634 13.917C5.58301 14.3337 4.99967 14.8337 4.99967 15.417C4.99967 16.5837 7.24967 17.5003 9.99967 17.5003C12.7497 17.5003 14.9997 16.5837 14.9997 15.417C14.9997 14.8337 14.4163 14.3337 13.4997 13.917L13.9997 13.167C15.6663 13.8337 16.6663 14.7503 16.6663 15.8337Z" fill="black"/>
</svg>
