<svg width="23" height="13" viewBox="0 0 23 13" fill="none" xmlns="http://www.w3.org/2000/svg">
<path d="M6.1 8C4.1 8 0 9.1 0 11.2V12.8H12.2V11.2C12.2 9 8.1 8 6.1 8Z" fill="#FFB59F"/>
<path d="M17.3001 10.7C17.3001 10.6 17.3001 10.5 17.2001 10.5C17.2001 10.5 17.2001 10.4 17.1001 10.4C17.1001 10.3 17.0001 10.3 17.0001 10.2L16.9001 10.1C16.8001 9.99995 16.8001 9.99995 16.7001 9.89995L16.6001 9.79995C16.5001 9.69995 16.5001 9.69995 16.4001 9.59995C16.4001 9.59995 16.3001 9.59995 16.3001 9.49995C16.2001 9.39995 16.1001 9.29995 16.0001 9.29995C15.7001 9.09995 15.4001 8.99995 15.1001 8.89995C15.1001 8.89995 15.1001 8.89995 15.0001 8.89995C14.9001 8.79995 14.7001 8.79995 14.6001 8.69995C14.6001 8.69995 14.6001 8.69995 14.5001 8.69995C14.4001 8.69995 14.2001 8.59995 14.1001 8.59995C14.1001 8.59995 14.1001 8.59995 14.0001 8.59995C13.8001 8.59995 13.7001 8.49995 13.5001 8.49995C13.0001 8.39995 12.5001 8.29995 12.1001 8.19995C13.1001 8.99995 13.8001 9.99995 13.8001 11.3V12.9H17.3001V11.3C17.3001 11.2 17.3001 11.1 17.3001 10.9C17.4001 10.7 17.4001 10.7 17.3001 10.7Z" fill="#FFB59F"/>
<path d="M22.2 10.8V10.7C22.2 10.6 22.2 10.5 22.1 10.5C22.1 10.5 22.1 10.4 22 10.4C22 10.3 21.9 10.3 21.9 10.2L21.8 10.1C21.7 9.99995 21.7 9.99995 21.6 9.89995L21.5 9.79995C21.4 9.69995 21.4 9.69995 21.3 9.59995C21.3 9.59995 21.2 9.59995 21.2 9.49995C21.1 9.39995 21 9.29995 20.9 9.29995C20.6 9.09995 20.3 8.99995 20 8.89995C20 8.89995 20 8.89995 19.9 8.89995C19.8 8.79995 19.6 8.79995 19.5 8.69995C19.5 8.69995 19.5 8.69995 19.4 8.69995C19.3 8.69995 19.1 8.59995 19 8.59995C19 8.59995 19 8.59995 18.9 8.59995C18.7 8.59995 18.6 8.49995 18.4 8.49995C17.9 8.39995 17.4 8.29995 17 8.19995C18 8.99995 18.7 9.99995 18.7 11.3V12.9H22.2V11.3C22.2 11 22.2 10.9 22.2 10.8Z" fill="#FFB59F"/>
<path d="M6.0999 6.4C7.8999 6.4 9.2999 5 9.2999 3.2C9.2999 1.4 7.8999 0 6.0999 0C4.2999 0 2.8999 1.4 2.8999 3.2C2.8999 4.9 4.2999 6.4 6.0999 6.4Z" fill="#FFB59F"/>
<path d="M10.4999 6.3C10.5999 6.3 10.5999 6.3 10.4999 6.3C10.7999 6.4 10.9999 6.4 11.1999 6.4C12.8999 6.4 14.3999 5 14.3999 3.2C14.3999 1.4 12.9999 0 11.1999 0C10.9999 0 10.6999 -9.68575e-08 10.4999 0.0999999C10.2999 0.2 10.0999 0.2 9.8999 0.3C10.4999 1.1 10.7999 2.1 10.7999 3.2C10.7999 4.3 10.4999 5.2 9.8999 6.1C10.0999 6.1 10.2999 6.2 10.4999 6.3Z" fill="#FFB59F"/>
<path d="M15.3998 6.3C15.6998 6.4 15.8998 6.4 16.0998 6.4C17.7998 6.4 19.2998 5 19.2998 3.2C19.2998 1.4 17.8998 0 16.0998 0C15.8998 0 15.5998 -9.68575e-08 15.3998 0.0999999C15.1998 0.2 14.9998 0.2 14.7998 0.3C15.3998 1.1 15.6998 2.1 15.6998 3.2C15.6998 4.3 15.3998 5.2 14.7998 6.1C14.9998 6.1 15.1998 6.2 15.3998 6.3Z" fill="#FFB59F"/>
</svg>
