<svg width="22" height="19" viewBox="0 0 22 19" fill="none" xmlns="http://www.w3.org/2000/svg">
<path d="M20 9.36L22 7.36C18.27 3.63 13.13 2.21 8.3 3.05L10.88 5.63C14.18 5.61 17.49 6.85 20 9.36ZM18 11.36C16.92 10.28 15.64 9.51 14.28 9.03L17.3 12.05L18 11.36ZM8 15.36L11 18.36L14 15.36C12.35 13.7 9.66 13.7 8 15.36ZM2.41 0L1 1.41L4.05 4.46C2.59 5.19 1.22 6.15 0 7.36L2 9.36C3.23 8.13 4.65 7.2 6.17 6.58L8.41 8.82C6.79 9.25 5.27 10.1 4 11.36L6 13.36C7.35 12.01 9.11 11.32 10.89 11.3L17.97 18.38L19.38 16.97L2.41 0Z" fill="#FFB59F"/>
</svg>
