<svg width="21" height="14" viewBox="0 0 21 14" fill="none" xmlns="http://www.w3.org/2000/svg">
<path opacity="0.54" d="M7 8.80005C4.7 8.80005 0 10 0 12.3V14H14V12.2C14 9.90005 9.3 8.80005 7 8.80005Z" fill="black"/>
<path opacity="0.54" d="M20.0001 11.9V11.8C20.0001 11.7 19.9001 11.6 19.9001 11.5C19.9001 11.5 19.9001 11.4 19.8001 11.4C19.8001 11.3 19.7001 11.3 19.7001 11.2L19.6001 11.1C19.5001 11 19.5001 11 19.4001 10.9L19.3001 10.8C19.2001 10.7 19.1001 10.7 19.0001 10.6L18.9001 10.5C18.8001 10.4 18.6001 10.3 18.5001 10.2C18.2001 10 17.9001 9.9 17.5001 9.7C17.5001 9.7 17.5001 9.7 17.4001 9.7C17.2001 9.6 17.1001 9.6 16.9001 9.5H16.8001C16.6001 9.4 16.5001 9.4 16.3001 9.4H16.2001C16.0001 9.4 15.8001 9.3 15.7001 9.3C15.1001 9.2 14.6001 9.1 14.1001 9C15.3001 9.8 16.1001 11 16.1001 12.4V14H20.1001V12.2C20.0001 12.1 20.0001 12 20.0001 11.9Z" fill="black"/>
<path opacity="0.54" d="M7 7C8.933 7 10.5 5.433 10.5 3.5C10.5 1.567 8.933 0 7 0C5.067 0 3.5 1.567 3.5 3.5C3.5 5.433 5.067 7 7 7Z" fill="black"/>
<path opacity="0.54" d="M12.2 6.9C12.5 7 12.7 7 13 7C14.9 7 16.5 5.4 16.5 3.5C16.5 1.6 14.9 0 13 0C12.7 0 12.5 -9.68575e-08 12.2 0.0999999C12 0.2 11.7 0.2 11.5 0.3C12.1 1.2 12.5 2.3 12.5 3.4C12.5 4.6 12.1 5.7 11.5 6.6C11.7 6.8 11.9 6.8 12.2 6.9Z" fill="black"/>
</svg>
