<svg width="298" height="40" viewBox="0 0 298 40" fill="none" xmlns="http://www.w3.org/2000/svg">
<path d="M39.8346 9.71725C40.3007 9.25563 40.5338 9.02481 41 8.56318V1.15407C40.5338 0.692441 40.3007 0.461627 39.8346 0H8.64753H1.16543C0.699261 0.438546 0.442865 0.692441 0 1.15407V8.56318V31.4368V38.8459C0.442865 39.2845 0.699261 39.5384 1.16543 40H8.64753H39.8113C40.2774 39.5384 40.5105 39.3076 40.9767 38.8459V31.4368C40.5105 30.9752 40.2774 30.7444 39.8113 30.2827H9.81296V9.71725H39.8346Z" fill="#F4511F"/>
<path d="M296.835 9.71725C297.301 9.25563 297.534 9.02481 298 8.56318V1.15407C297.534 0.692441 297.301 0.461627 296.835 0H265.904H258.165H257.909C257.559 0.34622 257.35 0.553953 257 0.900173V1.15407V8.56318V16.2954V23.7046V23.9585C257.35 24.3047 257.559 24.5124 257.909 24.8586H258.165H265.904H288.187V30.2827H258.165C257.699 30.7444 257.466 30.9752 257 31.4368V38.8459C257.466 39.3076 257.699 39.5384 258.165 40H289.096H296.835H297.091C297.441 39.6538 297.65 39.446 298 39.0998V38.8459V31.4368V23.7046V16.2954V16.0415C297.65 15.6953 297.441 15.4876 297.091 15.1414H296.835H289.096H266.813V9.71725H296.835Z" fill="#F4511F"/>
<path d="M141.842 0H135.913H134.528H134.505L122.989 11.7023L111.472 0H111.45H110.064H104.136C103.704 0.438546 103.454 0.692441 103 1.15407V38.8459C103.432 39.2845 103.681 39.5384 104.136 40H111.427C111.859 39.5615 112.108 39.3076 112.563 38.8459V14.8644L116.242 18.5805L123.011 25.4587L129.78 18.5805L133.437 14.8644V38.8459C133.869 39.2845 134.119 39.5384 134.573 40H141.864C142.296 39.5615 142.546 39.3076 143 38.8459V1.15407C142.523 0.692441 142.273 0.438546 141.842 0Z" fill="#F4511F"/>
<path d="M90.8119 0H90.2528H83.3341H59.6426H52.7239H52.1648C51.7222 0.438546 51.4659 0.692441 51 1.15407V1.70802V19.0652V19.3653V35.7069V38.8459C51.4426 39.2845 51.6989 39.5384 52.1648 40H56.1949C56.8006 40 57.3131 39.5384 57.3597 38.9383C57.4063 38.4074 57.4761 37.8765 57.5693 37.3687C58.0585 34.8759 59.2 32.614 60.8074 30.7675C63.4165 27.813 67.2369 25.9434 71.5 25.9434C75.7631 25.9434 79.5835 27.813 82.1926 30.7675C83.8233 32.614 84.9648 34.8759 85.4307 37.3687C85.5239 37.8765 85.5938 38.4074 85.6403 38.9383C85.6869 39.5384 86.1994 40 86.8051 40H90.8352C91.2778 39.5615 91.5341 39.3076 92 38.8459V35.7069V19.3653V19.0652V1.70802V1.15407C91.5108 0.692441 91.2778 0.438546 90.8119 0ZM83.1477 13.3872C83.1477 14.472 82.775 15.4645 82.1926 16.2724C81.8665 16.7109 81.4705 17.0802 81.0278 17.4033C80.2358 17.9342 79.304 18.2574 78.279 18.2574H64.7909C63.7659 18.2574 62.8108 17.9342 62.042 17.4033C61.5994 17.1033 61.2034 16.7109 60.8773 16.2724C60.2716 15.4645 59.9222 14.472 59.9222 13.3872C59.9222 12.3024 60.2949 11.3099 60.8773 10.502C61.7625 9.30179 63.2068 8.5401 64.8142 8.5401H78.3023C79.9097 8.5401 81.354 9.32487 82.2392 10.502C82.775 11.3099 83.1477 12.3254 83.1477 13.3872Z" fill="#F4511F"/>
<path d="M194.09 0H193.84H186.291H163.437H156.137C155.705 0.438546 155.455 0.692441 155 1.15407V6.39354V8.56318V13.041V16.2954V19.7807V23.6815V26.4282V38.8459C155.432 39.2845 155.682 39.5384 156.137 40H163.437C163.869 39.5615 164.119 39.3076 164.574 38.8459V27.9746H193.499C194.09 27.3745 194.409 27.0514 195 26.4512V23.9585V23.7046V19.7807V16.2954V13.041V8.56318V6.39354V1.15407V0.900173C194.636 0.553953 194.431 0.34622 194.09 0ZM186.359 13.3872C186.359 16.0646 184.221 18.2343 181.583 18.2343H168.417C165.779 18.2343 163.641 16.0646 163.641 13.3872C163.641 10.7098 165.779 8.5401 168.417 8.5401H181.583C184.221 8.5401 186.359 10.7098 186.359 13.3872Z" fill="#F4511F"/>
<path d="M247 31.8245V1.52425C246.394 0.923788 246.068 0.600462 245.462 0H238.725C238.119 0.600462 237.793 0.923788 237.187 1.52425V30.3002H215.813V1.52425C215.207 0.923788 214.881 0.600462 214.275 0H207.538C206.932 0.600462 206.606 0.923788 206 1.52425V31.8245V38.4758C206.606 39.0762 206.932 39.3995 207.538 40H214.275H238.725H245.462C246.301 40 247 39.3303 247 38.4758V31.8245Z" fill="#F4511F"/>
</svg>
