<svg width="17" height="9" viewBox="0 0 17 9" fill="none" xmlns="http://www.w3.org/2000/svg">
<path fill-rule="evenodd" clip-rule="evenodd" d="M4.75633 2.11293C4.75633 3.2641 5.64261 4.20054 6.7321 4.20054C7.8216 4.20054 8.70787 3.2641 8.70787 2.11293C8.70787 0.961761 7.8216 0.0253178 6.7321 0.0253178C5.64261 0.0253178 4.75633 0.961761 4.75633 2.11293ZM10.6836 7.33197C10.6836 5.94221 8.05304 5.24435 6.7321 5.24435C5.41116 5.24435 2.78056 5.94221 2.78056 7.33197V8.37577H10.6836V7.33197ZM3.36445 5.28014C2.70962 5.78117 2.25802 6.4492 2.25802 7.33197V8.37577H0V7.33197C0 6.12711 1.97577 5.44118 3.36445 5.28014ZM2.4599 3.39657C2.71926 4.38213 3.67596 4.9804 4.59267 4.73031C4.84916 4.66033 5.06918 4.52915 5.25811 4.3572C4.83927 3.98436 4.51705 3.47569 4.35982 2.87823C4.20259 2.28076 4.23185 1.6762 4.41148 1.14008C4.16343 1.08735 3.90847 1.08575 3.65198 1.15573C2.73527 1.40583 2.20053 2.41101 2.4599 3.39657Z" fill="black"/>
<path d="M9.99537 5.20626C10.6612 5.71713 11.1203 6.39829 11.1203 7.2984V8.36271H13.4161V7.2984C13.4161 6.06987 11.4073 5.37046 9.99537 5.20626Z" fill="black"/>
<path d="M9.50489 4.13491C10.5772 4.09989 11.4202 3.14422 11.3843 2.00444C11.3484 0.864658 10.4469 -0.034032 9.37466 0.00098982C9.07464 0.0107887 8.79926 0.0966344 8.54778 0.234905C8.91436 0.749071 9.14021 1.38607 9.16198 2.07702C9.18375 2.76798 8.99846 3.4184 8.665 3.95543C8.92466 4.07701 9.20487 4.14471 9.50489 4.13491Z" fill="black"/>
<path d="M12.7749 5.31505C13.4199 5.8083 13.8647 6.46597 13.8647 7.33504V8.36266H16.0888V7.33504C16.0888 6.14888 14.1427 5.47359 12.7749 5.31505Z" fill="black"/>
<path d="M11.4578 4.78173C12.3425 5.0844 13.3146 4.54244 13.6249 3.57352C13.9352 2.6046 13.4679 1.57019 12.5832 1.26751C12.3356 1.18283 12.0855 1.16968 11.8393 1.20798C11.985 1.75359 11.9794 2.35883 11.7913 2.94621C11.6032 3.53358 11.2583 4.02277 10.8264 4.37077C11.0019 4.55336 11.2103 4.69704 11.4578 4.78173Z" fill="black"/>
</svg>
