<svg width="16" height="16" viewBox="0 0 16 16" fill="none" xmlns="http://www.w3.org/2000/svg">
<path fill-rule="evenodd" clip-rule="evenodd" d="M7.99992 2.66663C9.47325 2.66663 10.6666 3.85996 10.6666 5.33329C10.6666 6.80663 9.47325 7.99996 7.99992 7.99996C6.52659 7.99996 5.33325 6.80663 5.33325 5.33329C5.33325 3.85996 6.52659 2.66663 7.99992 2.66663ZM6.59992 5.33329C6.59992 4.55996 7.22659 3.93329 7.99992 3.93329C8.77325 3.93329 9.39992 4.55996 9.39992 5.33329C9.39992 6.10663 8.77325 6.73329 7.99992 6.73329C7.22659 6.73329 6.59992 6.10663 6.59992 5.33329ZM3.93325 11.3333C3.93325 10.9066 6.01992 9.93329 7.99992 9.93329C9.97992 9.93329 12.0666 10.9066 12.0666 11.3333V12.0666H3.93325V11.3333ZM13.3333 11.3333C13.3333 9.55996 9.77992 8.66663 7.99992 8.66663C6.21992 8.66663 2.66659 9.55996 2.66659 11.3333V13.3333H13.3333V11.3333Z" fill="black"/>
</svg>
