<svg width="33" height="49" viewBox="0 0 33 49" fill="none" xmlns="http://www.w3.org/2000/svg">
<g filter="url(#filter0_d)">
<path d="M16.5337 46.3036C16.5337 46.312 16.5507 46.3288 16.5507 46.3288C16.5507 46.3288 31.4307 23.752 31.4307 16.3327C31.4307 5.41363 23.8888 0.66327 16.5337 0.646484C9.17864 0.66327 1.63672 5.41363 1.63672 16.3327C1.63672 23.752 16.5252 46.3288 16.5252 46.3288L16.5337 46.3036ZM11.3784 15.7117C11.3784 12.8917 13.6885 10.6088 16.5422 10.6088C19.3959 10.6088 21.706 12.8917 21.706 15.7117C21.706 18.5317 19.3874 20.8145 16.5337 20.8145C13.6885 20.8145 11.3784 18.5317 11.3784 15.7117Z" fill="#FDCC4F"/>
</g>
<defs>
<filter id="filter0_d" x="0" y="0" width="33" height="49" filterUnits="userSpaceOnUse" color-interpolation-filters="sRGB">
<feFlood flood-opacity="0" result="BackgroundImageFix"/>
<feColorMatrix in="SourceAlpha" type="matrix" values="0 0 0 0 0 0 0 0 0 0 0 0 0 0 0 0 0 0 127 0"/>
<feOffset dy="1"/>
<feGaussianBlur stdDeviation="0.5"/>
<feColorMatrix type="matrix" values="0 0 0 0 0 0 0 0 0 0 0 0 0 0 0 0 0 0 0.25 0"/>
<feBlend mode="normal" in2="BackgroundImageFix" result="effect1_dropShadow"/>
<feBlend mode="normal" in="SourceGraphic" in2="effect1_dropShadow" result="shape"/>
</filter>
</defs>
</svg>
