<svg width="19" height="30" viewBox="0 0 19 30" fill="none" xmlns="http://www.w3.org/2000/svg">
<path d="M9.31034 29.245C9.31034 29.2503 9.32096 29.2611 9.32096 29.2611C9.32096 29.2611 18.6207 14.7999 18.6207 10.0476C18.6207 3.05352 13.9071 0.0107518 9.31034 0C4.71356 0.0107518 0 3.05352 0 10.0476C0 14.7999 9.30504 29.2611 9.30504 29.2611L9.31034 29.245ZM6.08835 9.64976C6.08835 7.84345 7.53214 6.38121 9.31565 6.38121C11.0992 6.38121 12.543 7.84345 12.543 9.64976C12.543 11.4561 11.0939 12.9183 9.31034 12.9183C7.53214 12.9183 6.08835 11.4561 6.08835 9.64976Z" fill="#FFD771"/>
</svg>
